<svg width="1024" height="600" viewBox="0 0 1024 600" fill="none" xmlns="http://www.w3.org/2000/svg">
<path d="M549.444 188.169C511.601 99.6285 621.602 26.1115 692.264 92.718L906.177 294.356C957.268 342.515 936.818 425.944 869.771 442.879L570.648 518.429C477.185 542.035 414.68 421.129 490.22 362.854L538.417 325.672C569.473 301.714 580.084 259.858 564.403 223.169L549.444 188.169Z" fill="#0C0C0C"/>
<path d="M571.098 219.09C539.051 144.109 632.205 81.8515 692.045 138.257L873.197 309.014C916.463 349.798 899.145 420.45 842.367 434.791L589.055 498.77C509.906 518.761 456.973 416.372 520.944 367.022L561.76 335.534C588.059 315.246 597.045 279.799 583.766 248.73L571.098 219.09Z" fill="black"/>
<ellipse rx="1.29915" ry="1.2253" transform="matrix(0.997835 -0.0657714 0.0739806 0.99726 603.648 263.599)" fill="white"/>
<ellipse rx="1.29915" ry="1.2253" transform="matrix(0.997835 -0.0657714 0.0739806 0.99726 658.762 283.051)" fill="white"/>
<ellipse rx="1.29915" ry="1.2253" transform="matrix(0.997835 -0.0657714 0.0739806 0.99726 728.434 252.918)" fill="white"/>
<ellipse rx="1.29915" ry="1.2253" transform="matrix(0.997835 -0.0657714 0.0739806 0.99726 759.433 298.518)" fill="white"/>
<ellipse rx="1.29915" ry="1.2253" transform="matrix(0.997835 -0.0657714 0.0739806 0.99726 649.315 471.791)" fill="white"/>
<ellipse rx="1.29915" ry="1.2253" transform="matrix(0.997835 -0.0657714 0.0739806 0.99726 607.945 356.638)" fill="white"/>
<ellipse rx="1.29915" ry="1.2253" transform="matrix(0.997835 -0.0657714 0.0739806 0.99726 728.006 359.53)" fill="white"/>
<ellipse rx="1.29915" ry="1.2253" transform="matrix(0.997835 -0.0657714 0.0739806 0.99726 836.061 319.99)" fill="white"/>
<ellipse rx="1.29915" ry="1.2253" transform="matrix(0.997835 -0.0657714 0.0739806 0.99726 595.387 475.345)" fill="white"/>
<ellipse rx="1.29915" ry="1.2253" transform="matrix(0.997835 -0.0657714 0.0739806 0.99726 808.324 388.617)" fill="white"/>
<ellipse rx="1.29915" ry="1.2253" transform="matrix(0.997835 -0.0657714 0.0739806 0.99726 650.258 414.262)" fill="white"/>
<ellipse rx="1.29915" ry="1.2253" transform="matrix(0.997835 -0.0657714 0.0739806 0.99726 869.504 412.581)" fill="white"/>
<ellipse rx="1.29915" ry="1.2253" transform="matrix(0.997835 -0.0657714 0.0739806 0.99726 546.29 445.674)" fill="white"/>
<ellipse rx="1.29915" ry="1.2253" transform="matrix(0.997835 -0.0657714 0.0739806 0.99726 630.515 183.241)" fill="white"/>
<ellipse rx="1.29915" ry="1.2253" transform="matrix(0.997835 -0.0657714 0.0739806 0.99726 678.031 205.65)" fill="white"/>
<ellipse rx="0.519659" ry="0.490121" transform="matrix(0.997835 -0.0657714 0.0739806 0.99726 659.978 345.104)" fill="white"/>
<ellipse rx="0.519659" ry="0.490121" transform="matrix(0.997835 -0.0657714 0.0739806 0.99726 782.486 416.106)" fill="white"/>
<ellipse rx="0.519659" ry="0.490121" transform="matrix(0.997835 -0.0657714 0.0739806 0.99726 837.683 429.659)" fill="white"/>
<ellipse rx="0.519659" ry="0.490121" transform="matrix(0.997835 -0.0657714 0.0739806 0.99726 627.857 445.945)" fill="white"/>
<ellipse rx="0.519659" ry="0.490121" transform="matrix(0.997835 -0.0657714 0.0739806 0.99726 602.997 405.835)" fill="white"/>
<ellipse rx="0.519659" ry="0.490121" transform="matrix(0.997835 -0.0657714 0.0739806 0.99726 702.019 434.181)" fill="white"/>
<ellipse rx="0.519659" ry="0.490121" transform="matrix(0.997835 -0.0657714 0.0739806 0.99726 605.126 301.076)" fill="white"/>
<ellipse rx="0.519659" ry="0.490121" transform="matrix(0.997835 -0.0657714 0.0739806 0.99726 705.29 309.7)" fill="white"/>
<ellipse rx="0.519659" ry="0.490121" transform="matrix(0.997835 -0.0657714 0.0739806 0.99726 669.838 246.22)" fill="white"/>
<ellipse rx="0.519659" ry="0.490121" transform="matrix(0.997835 -0.0657714 0.0739806 0.99726 751.327 213.835)" fill="white"/>
<ellipse rx="0.519659" ry="0.490121" transform="matrix(0.997835 -0.0657714 0.0739806 0.99726 618.79 232.394)" fill="white"/>
<ellipse rx="0.519659" ry="0.490121" transform="matrix(0.997835 -0.0657714 0.0739806 0.99726 670.621 172.493)" fill="white"/>
<ellipse rx="0.519659" ry="0.490121" transform="matrix(0.997835 -0.0657714 0.0739806 0.99726 690.02 363.752)" fill="white"/>
<ellipse rx="0.519659" ry="0.490121" transform="matrix(0.997835 -0.0657714 0.0739806 0.99726 892.806 371.997)" fill="white"/>
<ellipse rx="0.519659" ry="0.490121" transform="matrix(0.997835 -0.0657714 0.0739806 0.99726 818.835 287.972)" fill="white"/>
<ellipse rx="0.519659" ry="0.490121" transform="matrix(0.997835 -0.0657714 0.0739806 0.99726 788.705 254.102)" fill="white"/>
<ellipse rx="0.519659" ry="0.490121" transform="matrix(0.997835 -0.0657714 0.0739806 0.99726 778.766 380.005)" fill="white"/>
<ellipse rx="0.519659" ry="0.490121" transform="matrix(0.997835 -0.0657714 0.0739806 0.99726 865.789 337.923)" fill="white"/>
<ellipse rx="0.519659" ry="0.490121" transform="matrix(0.997835 -0.0657714 0.0739806 0.99726 780.206 336.196)" fill="white"/>
<ellipse rx="0.519659" ry="0.490121" transform="matrix(0.997835 -0.0657714 0.0739806 0.99726 841.831 359.149)" fill="white"/>
<ellipse rx="0.519659" ry="0.490121" transform="matrix(0.997835 -0.0657714 0.0739806 0.99726 553.022 392.429)" fill="white"/>
<ellipse rx="0.519659" ry="0.490121" transform="matrix(0.997835 -0.0657714 0.0739806 0.99726 713.289 403.477)" fill="white"/>
<ellipse rx="0.519659" ry="0.490121" transform="matrix(0.997835 -0.0657714 0.0739806 0.99726 650.061 387.015)" fill="white"/>
<ellipse rx="0.519659" ry="0.490121" transform="matrix(0.997835 -0.0657714 0.0739806 0.99726 562.976 351.006)" fill="white"/>
<ellipse rx="0.519659" ry="0.490121" transform="matrix(0.997835 -0.0657714 0.0739806 0.99726 646.42 323.895)" fill="white"/>
<ellipse rx="0.519659" ry="0.490121" transform="matrix(0.997835 -0.0657714 0.0739806 0.99726 701.933 278.486)" fill="white"/>
<ellipse rx="0.519659" ry="0.490121" transform="matrix(0.997835 -0.0657714 0.0739806 0.99726 716.201 224.991)" fill="white"/>
<ellipse rx="0.519659" ry="0.490121" transform="matrix(0.997835 -0.0657714 0.0739806 0.99726 655.7 146.954)" fill="white"/>
<g filter="url(#filter0_f_137_2)">
<path d="M878.919 490.579C898.342 485.956 933.94 472.581 947.004 462.117C962.013 451.221 932.64 437.069 929.175 434.977C925.71 432.885 754.749 343.948 724.853 330.038C694.958 316.128 597.109 338.634 573.14 349.841C553.603 358.977 566.736 366.584 569.185 368.633C571.634 370.681 713.643 453.171 764.885 478.684C803.691 498.004 840.793 499.654 878.919 490.579Z" fill="black" fill-opacity="0.2"/>
</g>
<path fill-rule="evenodd" clip-rule="evenodd" d="M744.735 399.126L764.483 391.517L764.486 391.525C764.608 391.476 764.73 391.428 764.854 391.382C776.609 387.012 792.521 398.721 800.393 417.536C808.266 436.351 805.118 455.147 793.363 459.517C793.221 459.57 793.079 459.62 792.936 459.668L773.849 467.034L764.542 445.326C761.965 441.808 759.673 437.781 757.824 433.363C756.118 429.287 754.93 425.211 754.234 421.283L744.735 399.126Z" fill="black"/>
<ellipse rx="22.4849" ry="37.2919" transform="matrix(-0.946618 0.351935 0.381953 0.91282 759.555 433.015)" fill="black"/>
<g filter="url(#filter1_i_137_2)">
<ellipse rx="16.8645" ry="27.9702" transform="matrix(-0.946618 0.351935 0.381953 0.91282 758.894 433.006)" fill="url(#paint0_linear_137_2)"/>
</g>
<g filter="url(#filter2_di_137_2)">
<path fill-rule="evenodd" clip-rule="evenodd" d="M760.004 413.217C762.588 414.698 765.113 416.949 767.338 419.792L761.945 427.746C761.166 426.805 760.301 426.047 759.416 425.522L760.004 413.217ZM758.678 440.948C759.93 441.606 761.207 441.794 762.328 441.377C762.464 441.326 762.597 441.267 762.724 441.2L769.433 453.391C768.912 453.724 768.355 454.002 767.763 454.222C764.798 455.324 761.41 454.787 758.102 452.981L758.678 440.948ZM757.637 452.718L758.213 440.682C757.247 440.081 756.309 439.205 755.484 438.118L750.198 445.915C752.442 448.854 755.007 451.184 757.637 452.718ZM758.95 425.268L759.539 412.96C756.271 411.209 752.933 410.699 750.007 411.787C749.189 412.091 748.439 412.506 747.758 413.021L754.564 425.388C754.828 425.189 755.12 425.027 755.437 424.909C756.517 424.508 757.742 424.667 758.95 425.268ZM745.618 437.937C746.792 440.743 748.253 443.295 749.897 445.516L755.188 437.712C754.634 436.919 754.14 436.027 753.734 435.057C753.621 434.787 753.517 434.516 753.422 434.246L744.876 436.02C745.103 436.658 745.35 437.298 745.618 437.937ZM762.254 428.133L767.642 420.186C769.38 422.478 770.923 425.136 772.151 428.072C772.385 428.631 772.603 429.19 772.806 429.748L764.158 431.543C764.117 431.438 764.074 431.334 764.031 431.229C763.548 430.075 762.939 429.031 762.254 428.133ZM744.722 435.577C743.314 431.453 742.75 427.406 742.964 423.83L752.698 429.694C752.638 430.955 752.824 432.362 753.275 433.801L744.722 435.577ZM764.322 431.984C764.895 433.599 765.135 435.19 765.066 436.598L774.788 442.454C775.053 438.742 774.47 434.504 772.964 430.19L764.322 431.984ZM774.745 442.975L765.026 437.121C764.846 438.809 764.196 440.186 763.129 440.951L769.828 453.124C772.637 451.111 774.323 447.453 774.745 442.975ZM743.001 423.305L752.738 429.171C752.891 427.726 753.388 426.508 754.197 425.707L747.381 413.321C744.854 415.447 743.354 419.013 743.001 423.305Z" fill="#4C4C4C"/>
</g>
<path fill-rule="evenodd" clip-rule="evenodd" d="M744.759 398.742L764.507 391.133L764.51 391.141C764.635 391.09 764.76 391.041 764.887 390.994C776.642 386.624 792.553 398.333 800.426 417.148C808.298 435.963 805.151 454.759 793.396 459.13C793.252 459.183 793.108 459.234 792.963 459.283L773.873 466.65L764.55 444.905C761.983 441.394 759.7 437.38 757.857 432.975C756.157 428.913 754.971 424.852 754.275 420.937L744.759 398.742Z" fill="black"/>
<path d="M738.058 440.474C745.925 459.275 761.831 470.972 773.586 466.602C785.342 462.231 788.494 443.448 780.627 424.648C772.761 405.848 756.407 393.137 744.652 397.507C732.897 401.878 730.191 421.674 738.058 440.474Z" fill="black"/>
<g filter="url(#filter3_i_137_2)">
<ellipse rx="15.9802" ry="26.6554" transform="matrix(-0.93266 0.357875 0.372471 0.928292 759.092 433.014)" fill="url(#paint1_linear_137_2)"/>
</g>
<g filter="url(#filter4_di_137_2)">
<path fill-rule="evenodd" clip-rule="evenodd" d="M766.438 451.311L766.492 451.29L762.687 442.006C759.719 443.134 755.726 440.102 753.713 435.214L748.022 437.144C748.033 437.172 748.044 437.199 748.055 437.227C752.114 447.343 760.344 453.649 766.438 451.311ZM747.531 435.832C744.2 426.32 745.882 417.141 751.521 414.764L755.324 424.044C752.678 425.196 751.828 429.419 753.236 433.897L747.531 435.832ZM764.195 430.18C762.41 426.288 759.368 423.716 756.743 423.746L752.888 414.341C758.722 413.152 766.039 419.045 769.909 428.243L764.195 430.18ZM764.725 431.479L770.425 429.546C773.802 438.616 772.611 447.508 767.765 450.636L763.909 441.228C765.788 439.429 766.17 435.505 764.725 431.479Z" fill="#474747"/>
</g>
<path fill-rule="evenodd" clip-rule="evenodd" d="M602.667 324.243L619.911 320.825L619.913 320.832C620.024 320.808 620.136 320.785 620.249 320.764C630.489 318.859 641.563 330.597 644.985 346.982C648.406 363.367 642.879 378.194 632.639 380.099C632.514 380.123 632.39 380.144 632.265 380.163L615.584 383.478L611.441 364.478C609.917 361.275 608.702 357.705 607.903 353.882C607.167 350.356 606.845 346.903 606.896 343.635L602.667 324.243Z" fill="black"/>
<ellipse rx="18.4902" ry="30.9316" transform="matrix(-1.00273 0.186587 0.200127 0.958385 609.331 353.84)" fill="black"/>
<g filter="url(#filter5_i_137_2)">
<ellipse rx="13.8683" ry="23.1998" transform="matrix(-1.00273 0.186587 0.200127 0.958385 608.805 353.739)" fill="url(#paint2_linear_137_2)"/>
</g>
<g filter="url(#filter6_di_137_2)">
<path fill-rule="evenodd" clip-rule="evenodd" d="M612.825 337.819C614.692 339.384 616.389 341.567 617.748 344.19L612.104 349.903C611.62 349.028 611.037 348.29 610.4 347.738L612.825 337.819ZM607.363 360.167C608.275 360.875 609.281 361.205 610.256 361.023C610.378 361.001 610.497 360.97 610.613 360.933L614.137 371.776C613.661 371.973 613.166 372.121 612.651 372.217C610.067 372.698 607.398 371.786 604.995 369.853L607.363 360.167ZM604.657 369.573L607.025 359.884C606.336 359.262 605.714 358.422 605.216 357.426L599.696 363.013C601.053 365.71 602.766 367.959 604.657 369.573ZM610.06 347.465L612.485 337.543C610.11 335.667 607.481 334.789 604.934 335.262C604.222 335.395 603.546 335.628 602.911 335.951L606.484 346.944C606.728 346.821 606.988 346.732 607.262 346.681C608.203 346.506 609.173 346.807 610.06 347.465ZM597.236 355.89C597.746 358.334 598.53 360.611 599.515 362.646L605.039 357.054C604.713 356.331 604.451 355.534 604.274 354.687C604.225 354.451 604.183 354.216 604.149 353.983L596.936 354.228C597.02 354.778 597.12 355.333 597.236 355.89ZM612.294 350.262L617.933 344.554C618.982 346.659 619.815 349.033 620.349 351.589C620.451 352.076 620.54 352.561 620.616 353.042L613.298 353.291C613.281 353.2 613.263 353.109 613.244 353.018C613.035 352.015 612.707 351.085 612.294 350.262ZM596.881 353.848C596.389 350.301 596.571 346.933 597.31 344.058L604.282 350.176C604.032 351.194 603.96 352.367 604.1 353.603L596.881 353.848ZM613.361 353.67C613.572 355.06 613.515 356.383 613.239 357.516L620.218 363.64C621.02 360.662 621.216 357.137 620.674 353.422L613.361 353.67ZM620.1 364.056L613.124 357.934C612.712 359.282 611.969 360.311 610.982 360.786L614.501 371.614C617.102 370.373 619.05 367.636 620.1 364.056ZM597.423 343.638L604.397 349.758C604.752 348.606 605.349 347.687 606.134 347.151L602.557 336.143C600.169 337.516 598.388 340.202 597.423 343.638Z" fill="#4C4C4C"/>
</g>
<path fill-rule="evenodd" clip-rule="evenodd" d="M602.599 324.659L619.843 321.241L619.845 321.249C619.95 321.227 620.056 321.205 620.162 321.186C630.402 319.28 641.477 331.018 644.898 347.403C648.319 363.788 642.792 378.615 632.552 380.521C632.415 380.546 632.278 380.569 632.141 380.59L615.516 383.894L611.39 364.976C609.849 361.754 608.621 358.157 607.817 354.303C607.074 350.747 606.753 347.265 606.81 343.972L602.599 324.659Z" fill="black"/>
<ellipse rx="18.6957" ry="31.2753" transform="matrix(-1.00273 0.186587 0.200127 0.958385 609.275 353.904)" fill="black"/>
<g filter="url(#filter7_i_137_2)">
<g filter="url(#filter8_i_137_2)">
<ellipse rx="13.0147" ry="22.3942" transform="matrix(-0.989877 0.238251 0.271395 0.943076 608.051 355.882)" fill="url(#paint3_linear_137_2)"/>
</g>
<g filter="url(#filter9_di_137_2)">
<path fill-rule="evenodd" clip-rule="evenodd" d="M611.477 371.661L611.499 371.657L609.507 363.64C606.931 364.112 604.035 361.134 602.979 356.938L598.037 357.719C598.041 357.735 598.045 357.751 598.049 357.767C600.147 366.495 606.16 372.716 611.477 371.661ZM597.788 356.568C596.218 348.442 598.73 341.268 603.66 340.1L605.652 348.121C603.347 348.711 602.138 351.993 602.742 355.784L597.788 356.568ZM612.246 354.282C611.251 350.887 609.053 348.391 606.879 348.064L604.861 339.94C609.824 339.773 615.137 345.537 617.194 353.499L612.246 354.282ZM612.528 355.428L617.464 354.648C619.121 362.431 617.036 369.442 612.651 371.3L610.634 363.179C612.411 361.991 613.217 358.877 612.528 355.428Z" fill="url(#paint4_linear_137_2)"/>
</g>
</g>
<g filter="url(#filter10_ii_137_2)">
<path fill-rule="evenodd" clip-rule="evenodd" d="M857.809 326.245C858.622 326.756 859.348 327.116 859.989 327.307C867.085 329.419 925.766 362.982 938.288 376C950.473 388.667 949.418 395.885 948.929 399.236C948.858 399.719 948.799 400.123 948.793 400.45C948.766 402.082 948.596 405.363 948.38 409.537C948.252 411.995 948.109 414.762 947.969 417.686L947.494 427.619C947.434 428.359 947.401 429.117 947.368 429.89C947.226 433.173 947.072 436.742 944.743 440.562C941.873 445.27 928.282 462.402 865.555 478.032C844.29 483.33 820.259 475.42 805.014 468.711C798.147 465.969 793.102 463.395 790.956 462.262C790.667 462.109 790.495 461.831 790.472 461.508C790.375 461.455 790.285 461.407 790.203 461.363C790.046 456.318 789.103 449.071 787.548 441.82C785.824 434.299 783.448 426.844 780.687 421.912C774.13 410.197 759.684 395.478 747.61 398.829C733.908 402.632 734.072 420.908 734.123 425.273C734.138 426.556 734.255 427.416 734.371 428.266C734.54 429.514 734.707 430.739 734.543 433.245C734.537 433.341 734.517 433.431 734.486 433.514C734.472 433.68 734.456 433.853 734.439 434.034L734.197 433.904C733.922 434.12 733.527 434.178 733.178 433.991L629.229 378.327C628.966 378.186 628.785 377.93 628.749 377.635C628.479 375.366 628.614 372.705 628.765 369.712C629.155 361.993 629.656 352.072 623.616 341.014C618.094 330.906 609.675 324.013 601.638 326.014C593.6 328.014 591.061 335.943 590.415 340.391C589.781 344.76 589.841 348.796 589.875 351.137L589.875 351.138C589.889 352.08 589.899 352.748 589.858 353.051C589.715 354.111 578.744 344.4 578.179 340.853C576.458 330.059 576.472 320.02 578.163 309.209C578.45 307.372 579.422 302.634 580.037 301.051C580.091 300.913 580.12 300.771 580.116 300.623C580.017 296.883 580.984 291.28 582.201 288.966C582.308 288.762 582.413 288.548 582.524 288.323C583.812 285.693 585.824 281.586 600.071 276.312C620.299 268.822 675.184 252.568 677.294 252.223C682.279 251.409 688.58 252.118 693.682 252.691C696.676 253.028 699.256 253.318 700.914 253.227C724.87 251.909 752.364 256.177 788.01 275.012C792.799 277.166 797.519 279.592 802.072 282.326C813.428 289.145 822.932 296.277 830.811 302.805C840.049 310.078 847.13 316.565 852.21 321.22L852.211 321.22C854.466 323.287 856.328 324.992 857.809 326.245Z" fill="url(#paint5_linear_137_2)"/>
</g>
<g filter="url(#filter11_ddi_137_2)">
<path d="M760.212 360.83C747.088 355.061 740.443 337.57 720.899 316.651C720.663 316.399 720.764 315.982 721.092 315.874L805.587 288.083C805.655 288.061 805.724 288.054 805.794 288.069C806.778 288.283 814.936 290.591 838.295 311.718C849.621 321.962 851.861 324.6 857.769 328.717C858.703 329.368 858.471 330.705 854.8 333.296C843.097 341.555 779.458 369.291 760.212 360.83Z" fill="url(#paint6_linear_137_2)"/>
</g>
<g filter="url(#filter12_di_137_2)">
<path d="M669.822 291.229C652.636 285.333 650.153 285.708 636.766 285.139C628.472 284.786 614.685 283.766 613.083 287.208C611.481 290.65 626.872 302.328 633.297 306.034C636.437 307.845 745.025 364.874 741.789 358.542C737.801 350.74 718.81 328.132 712.394 318.957C701.697 303.66 687.007 297.125 669.822 291.229Z" fill="url(#paint7_linear_137_2)"/>
</g>
<g filter="url(#filter13_di_137_2)">
<path d="M630.809 279.237L705.283 254.358C705.283 254.358 703.617 254.832 694.649 254.326C691.52 254.15 614.215 280.24 613.638 280.674L630.809 279.237Z" fill="url(#paint8_linear_137_2)"/>
</g>
<g filter="url(#filter14_f_137_2)">
<path d="M792.015 399.995C764.515 386.534 749.47 370.464 733.222 355.669C782.94 371.849 886.937 407.051 885.189 408.98C883.004 411.391 875.287 414.033 850.041 414.558C825.186 415.075 795.164 401.536 792.015 399.995Z" fill="url(#paint9_linear_137_2)" fill-opacity="0.21"/>
</g>
<g filter="url(#filter15_di_137_2)">
<path d="M693.863 358.677C693.871 358.503 693.777 358.341 693.618 358.26L683.226 352.954C682.914 352.795 682.527 353.012 682.51 353.356L682.39 355.873C682.382 356.048 682.477 356.209 682.635 356.29L693.028 361.577C693.34 361.735 693.727 361.518 693.743 361.174L693.863 358.677Z" fill="#323232"/>
</g>
<g filter="url(#filter16_di_137_2)">
<path d="M641.178 334.11C641.187 333.936 641.092 333.774 640.934 333.694L630.541 328.387C630.23 328.228 629.842 328.446 629.826 328.789L629.706 331.306C629.697 331.481 629.792 331.642 629.951 331.723L640.344 337.01C640.656 337.169 641.042 336.951 641.059 336.607L641.178 334.11Z" fill="#323232"/>
</g>
<path d="M815.467 351.617L753.547 305.076C746.126 306.629 729.106 312.939 725.873 313.926C721.684 315.204 720.961 315.985 720.961 315.985C720.905 317.154 721.515 317.692 723.427 319.603C726.169 322.343 727.325 323.599 734.019 332.421C743.66 345.125 750.896 356.872 758.226 359.929C764.058 362.36 773.226 364.66 786.597 361.135C798.548 357.983 805.995 354.165 815.467 351.617Z" fill="#C4C4C4" fill-opacity="0.2"/>
<g opacity="0.17" filter="url(#filter17_f_137_2)">
<path d="M927.331 391.16C909.268 403.387 869.579 420.275 852.118 422.365" stroke="url(#paint10_linear_137_2)" stroke-width="15.5569" stroke-linecap="round" stroke-linejoin="round"/>
</g>
<g filter="url(#filter18_dii_137_2)">
<path d="M940.408 396.459C944 392.307 943.197 388.835 942.963 383.393C942.96 383.315 942.944 383.229 942.921 383.154C941.546 378.617 947.578 387.77 947.955 393.928C948.079 395.951 947.892 396.965 947.602 398.815C947.47 399.661 945.36 404.773 945.583 405.905C945.806 407.038 944.829 414.735 944.815 415.905C944.801 417.074 939.199 425.539 925.17 433.336C913.516 439.814 897.043 443.691 895.366 443.845C893.689 443.999 892.307 438.677 891.111 438.335C887.982 437.441 878.476 440.272 874.946 440.948C870.827 441.737 861.216 443.552 850.888 441.857C838.114 439.759 836.213 438.303 824.69 431.757C816.575 427.147 811.227 418.385 809.721 414.189C809.498 413.568 810.075 413.048 810.699 413.264C818.032 415.804 835.639 422.934 855.951 425.768C884.176 429.705 907.178 417.995 910.473 416.311C924.327 409.234 931.546 406.706 940.408 396.459Z" fill="#211F1F"/>
</g>
<mask id="mask0_137_2" style="mask-type:alpha" maskUnits="userSpaceOnUse" x="809" y="380" width="141" height="64">
<path d="M940.429 396.408C944.532 391.658 943.397 385.512 942.076 381.357C941.788 380.45 942.738 379.913 943.301 380.681C947.581 386.52 949.058 391.678 949.344 394.172C949.468 396.195 949.355 397.472 949.066 399.322C948.934 400.168 945.387 404.719 945.61 405.851C945.833 406.983 944.862 414.682 944.849 415.851C944.836 417.02 939.238 425.489 925.215 433.295C913.566 439.78 897.095 443.667 895.418 443.822C893.741 443.978 892.356 438.656 891.16 438.315C888.03 437.423 878.526 440.26 874.997 440.938C870.878 441.73 861.268 443.551 850.939 441.862C838.164 439.772 836.262 438.318 824.735 431.779C816.617 427.173 811.263 418.414 809.755 414.219C809.532 413.599 810.108 413.078 810.733 413.294C818.068 415.83 835.678 422.949 855.992 425.769C884.219 429.689 907.213 417.965 910.507 416.279C924.356 409.192 931.574 406.66 940.429 396.408Z" fill="#999999"/>
</mask>
<g mask="url(#mask0_137_2)">
<g filter="url(#filter19_d_137_2)">
<path d="M829.672 417.746L868.794 419.964C868.819 420.034 868.848 420.121 868.881 420.224C868.976 420.528 869.095 420.965 869.184 421.495C869.363 422.557 869.423 423.975 868.964 425.43C868.507 426.877 867.529 428.379 865.6 429.613C863.663 430.852 860.753 431.829 856.422 432.189C853.832 432.404 850.288 432.241 846.681 431.437C843.072 430.634 839.427 429.196 836.609 426.882C835.073 425.621 833.261 423.214 831.816 421.089C831.099 420.032 830.479 419.056 830.038 418.344C829.897 418.116 829.774 417.914 829.672 417.746Z" stroke="white" stroke-opacity="0.5" stroke-width="0.701444"/>
</g>
<g filter="url(#filter20_d_137_2)">
<path d="M933.795 396.459L943.007 384.544C943.106 384.701 943.231 384.911 943.371 385.168C943.705 385.785 944.117 386.672 944.425 387.746C945.04 389.893 945.234 392.772 943.583 395.753C943.098 396.629 942.414 397.25 941.67 397.496C940.941 397.738 940.107 397.637 939.263 396.979C938.863 396.666 938.258 396.502 937.626 396.416C936.983 396.327 936.266 396.314 935.602 396.333C934.935 396.352 934.313 396.405 933.859 396.453C933.837 396.455 933.816 396.457 933.795 396.459Z" stroke="white" stroke-opacity="0.5" stroke-width="0.584537"/>
</g>
</g>
<g filter="url(#filter21_f_137_2)">
<path d="M737.173 395.583L629.639 342.127C635.668 354.132 633.829 367.241 633.307 372.727L726.996 422.911C727.744 407.277 733.162 396.942 737.173 395.583Z" fill="url(#paint11_linear_137_2)"/>
</g>
<defs>
<filter id="filter0_f_137_2" x="556.025" y="319.064" width="401.793" height="183.406" filterUnits="userSpaceOnUse" color-interpolation-filters="sRGB">
<feFlood flood-opacity="0" result="BackgroundImageFix"/>
<feBlend mode="normal" in="SourceGraphic" in2="BackgroundImageFix" result="shape"/>
<feGaussianBlur stdDeviation="3.28595" result="effect1_foregroundBlur_137_2"/>
</filter>
<filter id="filter1_i_137_2" x="739.683" y="406.788" width="38.4221" height="52.4368" filterUnits="userSpaceOnUse" color-interpolation-filters="sRGB">
<feFlood flood-opacity="0" result="BackgroundImageFix"/>
<feBlend mode="normal" in="SourceGraphic" in2="BackgroundImageFix" result="shape"/>
<feColorMatrix in="SourceAlpha" type="matrix" values="0 0 0 0 0 0 0 0 0 0 0 0 0 0 0 0 0 0 127 0" result="hardAlpha"/>
<feMorphology radius="0.235711" operator="erode" in="SourceAlpha" result="effect1_innerShadow_137_2"/>
<feOffset/>
<feGaussianBlur stdDeviation="0.117855"/>
<feComposite in2="hardAlpha" operator="arithmetic" k2="-1" k3="1"/>
<feColorMatrix type="matrix" values="0 0 0 0 0 0 0 0 0 0 0 0 0 0 0 0 0 0 0.25 0"/>
<feBlend mode="normal" in2="shape" result="effect1_innerShadow_137_2"/>
</filter>
<filter id="filter2_di_137_2" x="742.213" y="411.169" width="32.7785" height="44.095" filterUnits="userSpaceOnUse" color-interpolation-filters="sRGB">
<feFlood flood-opacity="0" result="BackgroundImageFix"/>
<feColorMatrix in="SourceAlpha" type="matrix" values="0 0 0 0 0 0 0 0 0 0 0 0 0 0 0 0 0 0 127 0" result="hardAlpha"/>
<feOffset dy="0.0942844"/>
<feGaussianBlur stdDeviation="0.0707133"/>
<feColorMatrix type="matrix" values="0 0 0 0 1 0 0 0 0 1 0 0 0 0 1 0 0 0 0.41 0"/>
<feBlend mode="normal" in2="BackgroundImageFix" result="effect1_dropShadow_137_2"/>
<feBlend mode="normal" in="SourceGraphic" in2="effect1_dropShadow_137_2" result="shape"/>
<feColorMatrix in="SourceAlpha" type="matrix" values="0 0 0 0 0 0 0 0 0 0 0 0 0 0 0 0 0 0 127 0" result="hardAlpha"/>
<feOffset dx="-0.707132" dy="0.471422"/>
<feGaussianBlur stdDeviation="0.353566"/>
<feComposite in2="hardAlpha" operator="arithmetic" k2="-1" k3="1"/>
<feColorMatrix type="matrix" values="0 0 0 0 0 0 0 0 0 0 0 0 0 0 0 0 0 0 0.25 0"/>
<feBlend mode="normal" in2="shape" result="effect2_innerShadow_137_2"/>
</filter>
<filter id="filter3_i_137_2" x="741.182" y="407.612" width="35.8203" height="50.8038" filterUnits="userSpaceOnUse" color-interpolation-filters="sRGB">
<feFlood flood-opacity="0" result="BackgroundImageFix"/>
<feBlend mode="normal" in="SourceGraphic" in2="BackgroundImageFix" result="shape"/>
<feColorMatrix in="SourceAlpha" type="matrix" values="0 0 0 0 0 0 0 0 0 0 0 0 0 0 0 0 0 0 127 0" result="hardAlpha"/>
<feMorphology radius="0.173064" operator="erode" in="SourceAlpha" result="effect1_innerShadow_137_2"/>
<feOffset/>
<feGaussianBlur stdDeviation="0.0865322"/>
<feComposite in2="hardAlpha" operator="arithmetic" k2="-1" k3="1"/>
<feColorMatrix type="matrix" values="0 0 0 0 0 0 0 0 0 0 0 0 0 0 0 0 0 0 0.25 0"/>
<feBlend mode="normal" in2="shape" result="effect1_innerShadow_137_2"/>
</filter>
<filter id="filter4_di_137_2" x="745.123" y="414.142" width="27.3652" height="38.127" filterUnits="userSpaceOnUse" color-interpolation-filters="sRGB">
<feFlood flood-opacity="0" result="BackgroundImageFix"/>
<feColorMatrix in="SourceAlpha" type="matrix" values="0 0 0 0 0 0 0 0 0 0 0 0 0 0 0 0 0 0 127 0" result="hardAlpha"/>
<feOffset dy="0.0942843"/>
<feGaussianBlur stdDeviation="0.0707132"/>
<feColorMatrix type="matrix" values="0 0 0 0 1 0 0 0 0 1 0 0 0 0 1 0 0 0 0.41 0"/>
<feBlend mode="normal" in2="BackgroundImageFix" result="effect1_dropShadow_137_2"/>
<feBlend mode="normal" in="SourceGraphic" in2="effect1_dropShadow_137_2" result="shape"/>
<feColorMatrix in="SourceAlpha" type="matrix" values="0 0 0 0 0 0 0 0 0 0 0 0 0 0 0 0 0 0 127 0" result="hardAlpha"/>
<feOffset dx="-0.707132" dy="0.471422"/>
<feGaussianBlur stdDeviation="0.353566"/>
<feComposite in2="hardAlpha" operator="arithmetic" k2="-1" k3="1"/>
<feColorMatrix type="matrix" values="0 0 0 0 0 0 0 0 0 0 0 0 0 0 0 0 0 0 0.25 0"/>
<feBlend mode="normal" in2="shape" result="effect2_innerShadow_137_2"/>
</filter>
<filter id="filter5_i_137_2" x="594.14" y="331.352" width="29.3296" height="44.773" filterUnits="userSpaceOnUse" color-interpolation-filters="sRGB">
<feFlood flood-opacity="0" result="BackgroundImageFix"/>
<feBlend mode="normal" in="SourceGraphic" in2="BackgroundImageFix" result="shape"/>
<feColorMatrix in="SourceAlpha" type="matrix" values="0 0 0 0 0 0 0 0 0 0 0 0 0 0 0 0 0 0 127 0" result="hardAlpha"/>
<feMorphology radius="0.194653" operator="erode" in="SourceAlpha" result="effect1_innerShadow_137_2"/>
<feOffset/>
<feGaussianBlur stdDeviation="0.0973265"/>
<feComposite in2="hardAlpha" operator="arithmetic" k2="-1" k3="1"/>
<feColorMatrix type="matrix" values="0 0 0 0 0 0 0 0 0 0 0 0 0 0 0 0 0 0 0.25 0"/>
<feBlend mode="normal" in2="shape" result="effect1_innerShadow_137_2"/>
</filter>
<filter id="filter6_di_137_2" x="596.022" y="335.097" width="25.0743" height="37.6359" filterUnits="userSpaceOnUse" color-interpolation-filters="sRGB">
<feFlood flood-opacity="0" result="BackgroundImageFix"/>
<feColorMatrix in="SourceAlpha" type="matrix" values="0 0 0 0 0 0 0 0 0 0 0 0 0 0 0 0 0 0 127 0" result="hardAlpha"/>
<feOffset dy="0.0778612"/>
<feGaussianBlur stdDeviation="0.0583959"/>
<feColorMatrix type="matrix" values="0 0 0 0 1 0 0 0 0 1 0 0 0 0 1 0 0 0 0.41 0"/>
<feBlend mode="normal" in2="BackgroundImageFix" result="effect1_dropShadow_137_2"/>
<feBlend mode="normal" in="SourceGraphic" in2="effect1_dropShadow_137_2" result="shape"/>
<feColorMatrix in="SourceAlpha" type="matrix" values="0 0 0 0 0 0 0 0 0 0 0 0 0 0 0 0 0 0 127 0" result="hardAlpha"/>
<feOffset dx="-0.583959" dy="0.389306"/>
<feGaussianBlur stdDeviation="0.29198"/>
<feComposite in2="hardAlpha" operator="arithmetic" k2="-1" k3="1"/>
<feColorMatrix type="matrix" values="0 0 0 0 0 0 0 0 0 0 0 0 0 0 0 0 0 0 0.25 0"/>
<feBlend mode="normal" in2="shape" result="effect2_innerShadow_137_2"/>
</filter>
<filter id="filter7_i_137_2" x="593.803" y="334.533" width="28.4958" height="42.6973" filterUnits="userSpaceOnUse" color-interpolation-filters="sRGB">
<feFlood flood-opacity="0" result="BackgroundImageFix"/>
<feBlend mode="normal" in="SourceGraphic" in2="BackgroundImageFix" result="shape"/>
<feColorMatrix in="SourceAlpha" type="matrix" values="0 0 0 0 0 0 0 0 0 0 0 0 0 0 0 0 0 0 127 0" result="hardAlpha"/>
<feMorphology radius="0.173064" operator="erode" in="SourceAlpha" result="effect1_innerShadow_137_2"/>
<feOffset/>
<feGaussianBlur stdDeviation="0.0865321"/>
<feComposite in2="hardAlpha" operator="arithmetic" k2="-1" k3="1"/>
<feColorMatrix type="matrix" values="0 0 0 0 0 0 0 0 0 0 0 0 0 0 0 0 0 0 0.25 0"/>
<feBlend mode="normal" in2="shape" result="effect1_innerShadow_137_2"/>
</filter>
<filter id="filter8_i_137_2" x="593.803" y="334.533" width="28.4958" height="42.6973" filterUnits="userSpaceOnUse" color-interpolation-filters="sRGB">
<feFlood flood-opacity="0" result="BackgroundImageFix"/>
<feBlend mode="normal" in="SourceGraphic" in2="BackgroundImageFix" result="shape"/>
<feColorMatrix in="SourceAlpha" type="matrix" values="0 0 0 0 0 0 0 0 0 0 0 0 0 0 0 0 0 0 127 0" result="hardAlpha"/>
<feMorphology radius="0.175185" operator="erode" in="SourceAlpha" result="effect1_innerShadow_137_2"/>
<feOffset/>
<feGaussianBlur stdDeviation="0.0875926"/>
<feComposite in2="hardAlpha" operator="arithmetic" k2="-1" k3="1"/>
<feColorMatrix type="matrix" values="0 0 0 0 0 0 0 0 0 0 0 0 0 0 0 0 0 0 0.25 0"/>
<feBlend mode="normal" in2="shape" result="effect1_innerShadow_137_2"/>
</filter>
<filter id="filter9_di_137_2" x="596.616" y="339.889" width="21.5566" height="32.3599" filterUnits="userSpaceOnUse" color-interpolation-filters="sRGB">
<feFlood flood-opacity="0" result="BackgroundImageFix"/>
<feColorMatrix in="SourceAlpha" type="matrix" values="0 0 0 0 0 0 0 0 0 0 0 0 0 0 0 0 0 0 127 0" result="hardAlpha"/>
<feOffset dy="0.0942843"/>
<feGaussianBlur stdDeviation="0.0707133"/>
<feColorMatrix type="matrix" values="0 0 0 0 1 0 0 0 0 1 0 0 0 0 1 0 0 0 0.41 0"/>
<feBlend mode="normal" in2="BackgroundImageFix" result="effect1_dropShadow_137_2"/>
<feBlend mode="normal" in="SourceGraphic" in2="effect1_dropShadow_137_2" result="shape"/>
<feColorMatrix in="SourceAlpha" type="matrix" values="0 0 0 0 0 0 0 0 0 0 0 0 0 0 0 0 0 0 127 0" result="hardAlpha"/>
<feOffset dx="-0.707132" dy="0.471422"/>
<feGaussianBlur stdDeviation="0.353566"/>
<feComposite in2="hardAlpha" operator="arithmetic" k2="-1" k3="1"/>
<feColorMatrix type="matrix" values="0 0 0 0 0 0 0 0 0 0 0 0 0 0 0 0 0 0 0.25 0"/>
<feBlend mode="normal" in2="shape" result="effect2_innerShadow_137_2"/>
</filter>
<filter id="filter10_ii_137_2" x="576.891" y="249.969" width="373.711" height="229.798" filterUnits="userSpaceOnUse" color-interpolation-filters="sRGB">
<feFlood flood-opacity="0" result="BackgroundImageFix"/>
<feBlend mode="normal" in="SourceGraphic" in2="BackgroundImageFix" result="shape"/>
<feColorMatrix in="SourceAlpha" type="matrix" values="0 0 0 0 0 0 0 0 0 0 0 0 0 0 0 0 0 0 127 0" result="hardAlpha"/>
<feOffset dx="1.41426" dy="-1.88569"/>
<feGaussianBlur stdDeviation="5.65706"/>
<feComposite in2="hardAlpha" operator="arithmetic" k2="-1" k3="1"/>
<feColorMatrix type="matrix" values="0 0 0 0 0 0 0 0 0 0 0 0 0 0 0 0 0 0 0.07 0"/>
<feBlend mode="normal" in2="shape" result="effect1_innerShadow_137_2"/>
<feColorMatrix in="SourceAlpha" type="matrix" values="0 0 0 0 0 0 0 0 0 0 0 0 0 0 0 0 0 0 127 0" result="hardAlpha"/>
<feOffset dy="-0.235711"/>
<feGaussianBlur stdDeviation="0.471422"/>
<feComposite in2="hardAlpha" operator="arithmetic" k2="-1" k3="1"/>
<feColorMatrix type="matrix" values="0 0 0 0 0 0 0 0 0 0 0 0 0 0 0 0 0 0 0.25 0"/>
<feBlend mode="normal" in2="effect1_innerShadow_137_2" result="effect2_innerShadow_137_2"/>
</filter>
<filter id="filter11_ddi_137_2" x="719.827" y="287.354" width="138.878" height="75.7706" filterUnits="userSpaceOnUse" color-interpolation-filters="sRGB">
<feFlood flood-opacity="0" result="BackgroundImageFix"/>
<feColorMatrix in="SourceAlpha" type="matrix" values="0 0 0 0 0 0 0 0 0 0 0 0 0 0 0 0 0 0 127 0" result="hardAlpha"/>
<feOffset dx="-0.471422" dy="0.235711"/>
<feGaussianBlur stdDeviation="0.235711"/>
<feColorMatrix type="matrix" values="0 0 0 0 1 0 0 0 0 1 0 0 0 0 1 0 0 0 0.28 0"/>
<feBlend mode="normal" in2="BackgroundImageFix" result="effect1_dropShadow_137_2"/>
<feColorMatrix in="SourceAlpha" type="matrix" values="0 0 0 0 0 0 0 0 0 0 0 0 0 0 0 0 0 0 127 0" result="hardAlpha"/>
<feOffset dy="-0.235711"/>
<feGaussianBlur stdDeviation="0.235711"/>
<feColorMatrix type="matrix" values="0 0 0 0 1 0 0 0 0 1 0 0 0 0 1 0 0 0 0.56 0"/>
<feBlend mode="normal" in2="effect1_dropShadow_137_2" result="effect2_dropShadow_137_2"/>
<feBlend mode="normal" in="SourceGraphic" in2="effect2_dropShadow_137_2" result="shape"/>
<feColorMatrix in="SourceAlpha" type="matrix" values="0 0 0 0 0 0 0 0 0 0 0 0 0 0 0 0 0 0 127 0" result="hardAlpha"/>
<feOffset dx="-0.235711" dy="0.707132"/>
<feGaussianBlur stdDeviation="0.353566"/>
<feComposite in2="hardAlpha" operator="arithmetic" k2="-1" k3="1"/>
<feColorMatrix type="matrix" values="0 0 0 0 0 0 0 0 0 0 0 0 0 0 0 0 0 0 0.75 0"/>
<feBlend mode="normal" in2="shape" result="effect3_innerShadow_137_2"/>
</filter>
<filter id="filter12_di_137_2" x="612.024" y="284.721" width="130.079" height="75.2539" filterUnits="userSpaceOnUse" color-interpolation-filters="sRGB">
<feFlood flood-opacity="0" result="BackgroundImageFix"/>
<feColorMatrix in="SourceAlpha" type="matrix" values="0 0 0 0 0 0 0 0 0 0 0 0 0 0 0 0 0 0 127 0" result="hardAlpha"/>
<feOffset dy="0.243756"/>
<feGaussianBlur stdDeviation="0.121878"/>
<feColorMatrix type="matrix" values="0 0 0 0 0.925374 0 0 0 0 0.925374 0 0 0 0 0.925374 0 0 0 0.37 0"/>
<feBlend mode="normal" in2="BackgroundImageFix" result="effect1_dropShadow_137_2"/>
<feBlend mode="normal" in="SourceGraphic" in2="effect1_dropShadow_137_2" result="shape"/>
<feColorMatrix in="SourceAlpha" type="matrix" values="0 0 0 0 0 0 0 0 0 0 0 0 0 0 0 0 0 0 127 0" result="hardAlpha"/>
<feOffset dx="-0.942843" dy="1.17855"/>
<feGaussianBlur stdDeviation="0.471422"/>
<feComposite in2="hardAlpha" operator="arithmetic" k2="-1" k3="1"/>
<feColorMatrix type="matrix" values="0 0 0 0 0 0 0 0 0 0 0 0 0 0 0 0 0 0 0.8 0"/>
<feBlend mode="normal" in2="shape" result="effect2_innerShadow_137_2"/>
</filter>
<filter id="filter13_di_137_2" x="612.695" y="254.325" width="92.8311" height="27.292" filterUnits="userSpaceOnUse" color-interpolation-filters="sRGB">
<feFlood flood-opacity="0" result="BackgroundImageFix"/>
<feColorMatrix in="SourceAlpha" type="matrix" values="0 0 0 0 0 0 0 0 0 0 0 0 0 0 0 0 0 0 127 0" result="hardAlpha"/>
<feOffset dy="0.243756"/>
<feGaussianBlur stdDeviation="0.121878"/>
<feColorMatrix type="matrix" values="0 0 0 0 0.925374 0 0 0 0 0.925374 0 0 0 0 0.925374 0 0 0 0.37 0"/>
<feBlend mode="normal" in2="BackgroundImageFix" result="effect1_dropShadow_137_2"/>
<feBlend mode="normal" in="SourceGraphic" in2="effect1_dropShadow_137_2" result="shape"/>
<feColorMatrix in="SourceAlpha" type="matrix" values="0 0 0 0 0 0 0 0 0 0 0 0 0 0 0 0 0 0 127 0" result="hardAlpha"/>
<feOffset dx="-0.942843" dy="1.17855"/>
<feGaussianBlur stdDeviation="0.471422"/>
<feComposite in2="hardAlpha" operator="arithmetic" k2="-1" k3="1"/>
<feColorMatrix type="matrix" values="0 0 0 0 0 0 0 0 0 0 0 0 0 0 0 0 0 0 0.8 0"/>
<feBlend mode="normal" in2="shape" result="effect2_innerShadow_137_2"/>
</filter>
<filter id="filter14_f_137_2" x="726.623" y="349.069" width="165.188" height="72.1027" filterUnits="userSpaceOnUse" color-interpolation-filters="sRGB">
<feFlood flood-opacity="0" result="BackgroundImageFix"/>
<feBlend mode="normal" in="SourceGraphic" in2="BackgroundImageFix" result="shape"/>
<feGaussianBlur stdDeviation="3.29995" result="effect1_foregroundBlur_137_2"/>
</filter>
<filter id="filter15_di_137_2" x="682.273" y="352.667" width="11.7074" height="9.54711" filterUnits="userSpaceOnUse" color-interpolation-filters="sRGB">
<feFlood flood-opacity="0" result="BackgroundImageFix"/>
<feColorMatrix in="SourceAlpha" type="matrix" values="0 0 0 0 0 0 0 0 0 0 0 0 0 0 0 0 0 0 127 0" result="hardAlpha"/>
<feOffset dy="-0.116907"/>
<feGaussianBlur stdDeviation="0.0584537"/>
<feColorMatrix type="matrix" values="0 0 0 0 0.78755 0 0 0 0 0.78755 0 0 0 0 0.78755 0 0 0 0.19 0"/>
<feBlend mode="normal" in2="BackgroundImageFix" result="effect1_dropShadow_137_2"/>
<feBlend mode="normal" in="SourceGraphic" in2="effect1_dropShadow_137_2" result="shape"/>
<feColorMatrix in="SourceAlpha" type="matrix" values="0 0 0 0 0 0 0 0 0 0 0 0 0 0 0 0 0 0 127 0" result="hardAlpha"/>
<feOffset dy="0.584537"/>
<feGaussianBlur stdDeviation="0.292269"/>
<feComposite in2="hardAlpha" operator="arithmetic" k2="-1" k3="1"/>
<feColorMatrix type="matrix" values="0 0 0 0 0 0 0 0 0 0 0 0 0 0 0 0 0 0 0.74 0"/>
<feBlend mode="normal" in2="shape" result="effect2_innerShadow_137_2"/>
</filter>
<filter id="filter16_di_137_2" x="629.588" y="328.1" width="11.7074" height="9.54711" filterUnits="userSpaceOnUse" color-interpolation-filters="sRGB">
<feFlood flood-opacity="0" result="BackgroundImageFix"/>
<feColorMatrix in="SourceAlpha" type="matrix" values="0 0 0 0 0 0 0 0 0 0 0 0 0 0 0 0 0 0 127 0" result="hardAlpha"/>
<feOffset dy="-0.116907"/>
<feGaussianBlur stdDeviation="0.0584537"/>
<feColorMatrix type="matrix" values="0 0 0 0 0.78755 0 0 0 0 0.78755 0 0 0 0 0.78755 0 0 0 0.19 0"/>
<feBlend mode="normal" in2="BackgroundImageFix" result="effect1_dropShadow_137_2"/>
<feBlend mode="normal" in="SourceGraphic" in2="effect1_dropShadow_137_2" result="shape"/>
<feColorMatrix in="SourceAlpha" type="matrix" values="0 0 0 0 0 0 0 0 0 0 0 0 0 0 0 0 0 0 127 0" result="hardAlpha"/>
<feOffset dy="0.584537"/>
<feGaussianBlur stdDeviation="0.292269"/>
<feComposite in2="hardAlpha" operator="arithmetic" k2="-1" k3="1"/>
<feColorMatrix type="matrix" values="0 0 0 0 0 0 0 0 0 0 0 0 0 0 0 0 0 0 0.74 0"/>
<feBlend mode="normal" in2="shape" result="effect2_innerShadow_137_2"/>
</filter>
<filter id="filter17_f_137_2" x="841.981" y="381.025" width="95.4877" height="51.4747" filterUnits="userSpaceOnUse" color-interpolation-filters="sRGB">
<feFlood flood-opacity="0" result="BackgroundImageFix"/>
<feBlend mode="normal" in="SourceGraphic" in2="BackgroundImageFix" result="shape"/>
<feGaussianBlur stdDeviation="1.17855" result="effect1_foregroundBlur_137_2"/>
</filter>
<filter id="filter18_dii_137_2" x="808.35" y="380.834" width="140.966" height="64.5568" filterUnits="userSpaceOnUse" color-interpolation-filters="sRGB">
<feFlood flood-opacity="0" result="BackgroundImageFix"/>
<feColorMatrix in="SourceAlpha" type="matrix" values="0 0 0 0 0 0 0 0 0 0 0 0 0 0 0 0 0 0 127 0" result="hardAlpha"/>
<feOffset dy="0.220368"/>
<feGaussianBlur stdDeviation="0.661103"/>
<feColorMatrix type="matrix" values="0 0 0 0 0 0 0 0 0 0 0 0 0 0 0 0 0 0 0.85 0"/>
<feBlend mode="normal" in2="BackgroundImageFix" result="effect1_dropShadow_137_2"/>
<feBlend mode="normal" in="SourceGraphic" in2="effect1_dropShadow_137_2" result="shape"/>
<feColorMatrix in="SourceAlpha" type="matrix" values="0 0 0 0 0 0 0 0 0 0 0 0 0 0 0 0 0 0 127 0" result="hardAlpha"/>
<feOffset dy="0.220368"/>
<feGaussianBlur stdDeviation="0.220368"/>
<feComposite in2="hardAlpha" operator="arithmetic" k2="-1" k3="1"/>
<feColorMatrix type="matrix" values="0 0 0 0 0 0 0 0 0 0 0 0 0 0 0 0 0 0 0.25 0"/>
<feBlend mode="normal" in2="shape" result="effect2_innerShadow_137_2"/>
<feColorMatrix in="SourceAlpha" type="matrix" values="0 0 0 0 0 0 0 0 0 0 0 0 0 0 0 0 0 0 127 0" result="hardAlpha"/>
<feOffset dy="-0.220368"/>
<feGaussianBlur stdDeviation="0.220368"/>
<feComposite in2="hardAlpha" operator="arithmetic" k2="-1" k3="1"/>
<feColorMatrix type="matrix" values="0 0 0 0 0 0 0 0 0 0 0 0 0 0 0 0 0 0 0.25 0"/>
<feBlend mode="normal" in2="effect2_innerShadow_137_2" result="effect3_innerShadow_137_2"/>
</filter>
<filter id="filter19_d_137_2" x="828.684" y="417.36" width="41.8029" height="16.4343" filterUnits="userSpaceOnUse" color-interpolation-filters="sRGB">
<feFlood flood-opacity="0" result="BackgroundImageFix"/>
<feColorMatrix in="SourceAlpha" type="matrix" values="0 0 0 0 0 0 0 0 0 0 0 0 0 0 0 0 0 0 127 0" result="hardAlpha"/>
<feOffset dx="0.233815" dy="0.584537"/>
<feGaussianBlur stdDeviation="0.292268"/>
<feColorMatrix type="matrix" values="0 0 0 0 1 0 0 0 0 1 0 0 0 0 1 0 0 0 0.24 0"/>
<feBlend mode="normal" in2="BackgroundImageFix" result="effect1_dropShadow_137_2"/>
<feBlend mode="normal" in="SourceGraphic" in2="effect1_dropShadow_137_2" result="shape"/>
</filter>
<filter id="filter20_d_137_2" x="933.145" y="384.041" width="12.62" height="14.4583" filterUnits="userSpaceOnUse" color-interpolation-filters="sRGB">
<feFlood flood-opacity="0" result="BackgroundImageFix"/>
<feColorMatrix in="SourceAlpha" type="matrix" values="0 0 0 0 0 0 0 0 0 0 0 0 0 0 0 0 0 0 127 0" result="hardAlpha"/>
<feOffset dx="0.350722" dy="0.350722"/>
<feGaussianBlur stdDeviation="0.122652"/>
<feColorMatrix type="matrix" values="0 0 0 0 1 0 0 0 0 1 0 0 0 0 1 0 0 0 0.24 0"/>
<feBlend mode="normal" in2="BackgroundImageFix" result="effect1_dropShadow_137_2"/>
<feBlend mode="normal" in="SourceGraphic" in2="effect1_dropShadow_137_2" result="shape"/>
</filter>
<filter id="filter21_f_137_2" x="628.47" y="340.958" width="109.872" height="83.1227" filterUnits="userSpaceOnUse" color-interpolation-filters="sRGB">
<feFlood flood-opacity="0" result="BackgroundImageFix"/>
<feBlend mode="normal" in="SourceGraphic" in2="BackgroundImageFix" result="shape"/>
<feGaussianBlur stdDeviation="0.584537" result="effect1_foregroundBlur_137_2"/>
</filter>
<linearGradient id="paint0_linear_137_2" x1="39.7796" y1="42.6679" x2="41.6681" y2="13.8972" gradientUnits="userSpaceOnUse">
<stop stop-color="#3F3F3F"/>
<stop offset="1" stop-color="#5C5C5C"/>
</linearGradient>
<linearGradient id="paint1_linear_137_2" x1="37.6043" y1="37.0088" x2="27.288" y2="-12.5959" gradientUnits="userSpaceOnUse">
<stop stop-color="#3F3F3F"/>
<stop offset="1" stop-color="#777676"/>
</linearGradient>
<linearGradient id="paint2_linear_137_2" x1="32.7124" y1="35.3907" x2="34.2922" y2="11.5287" gradientUnits="userSpaceOnUse">
<stop stop-color="#3F3F3F"/>
<stop offset="1" stop-color="#5C5C5C"/>
</linearGradient>
<linearGradient id="paint3_linear_137_2" x1="30.6259" y1="31.0925" x2="21.7089" y2="-10.4717" gradientUnits="userSpaceOnUse">
<stop stop-color="#3F3F3F"/>
<stop offset="1" stop-color="#777676"/>
</linearGradient>
<linearGradient id="paint4_linear_137_2" x1="591.453" y1="358.437" x2="602.055" y2="331.421" gradientUnits="userSpaceOnUse">
<stop stop-color="#3F3F3F"/>
<stop offset="1" stop-color="#777676"/>
</linearGradient>
<linearGradient id="paint5_linear_137_2" x1="797.465" y1="467.855" x2="911.861" y2="306.297" gradientUnits="userSpaceOnUse">
<stop stop-color="#2C2C2C"/>
<stop offset="0.628054" stop-color="#515151"/>
<stop offset="1" stop-color="#7D7D7D"/>
</linearGradient>
<linearGradient id="paint6_linear_137_2" x1="809.697" y1="221.342" x2="713.082" y2="310.205" gradientUnits="userSpaceOnUse">
<stop stop-color="#E8EAE9"/>
<stop offset="0.498386" stop-color="#707072"/>
<stop offset="1" stop-color="#2F3032"/>
</linearGradient>
<linearGradient id="paint7_linear_137_2" x1="634.955" y1="506.153" x2="727.275" y2="344.375" gradientUnits="userSpaceOnUse">
<stop stop-color="#E8EAE9"/>
<stop offset="0.498386" stop-color="#707072"/>
<stop offset="1" stop-color="#2F3032"/>
</linearGradient>
<linearGradient id="paint8_linear_137_2" x1="602.994" y1="338.42" x2="654.255" y2="265.835" gradientUnits="userSpaceOnUse">
<stop stop-color="#E8EAE9"/>
<stop offset="0.498386" stop-color="#707072"/>
<stop offset="1" stop-color="#2F3032"/>
</linearGradient>
<linearGradient id="paint9_linear_137_2" x1="802.507" y1="415.809" x2="814.848" y2="382.421" gradientUnits="userSpaceOnUse">
<stop stop-color="#ECEAEA"/>
<stop offset="1" stop-color="white" stop-opacity="0"/>
</linearGradient>
<linearGradient id="paint10_linear_137_2" x1="890.05" y1="423.612" x2="883.313" y2="407.971" gradientUnits="userSpaceOnUse">
<stop stop-color="#4B4B4B"/>
<stop offset="0.899322" stop-opacity="0"/>
</linearGradient>
<linearGradient id="paint11_linear_137_2" x1="705.844" y1="363.774" x2="675.754" y2="422.743" gradientUnits="userSpaceOnUse">
<stop stop-color="#343434" stop-opacity="0.66"/>
<stop offset="1" stop-color="#1A1A1A"/>
</linearGradient>
</defs>
</svg>
