<svg width="226" height="57" viewBox="0 0 226 57" fill="none" xmlns="http://www.w3.org/2000/svg">
<line x1="197.141" y1="45.5953" x2="219.402" y2="45.5953" stroke="#008000" stroke-width="1.03298" stroke-linecap="round"/>
<line x1="101.074" y1="45.5953" x2="123.335" y2="45.5953" stroke="#FFFF00" stroke-width="1.03298" stroke-linecap="round"/>
<path d="M15.3737 41.4774V16.8409H5.84447V16.3761H25.3677V16.8409H15.8385V41.4774H15.3737ZM49.6904 16.8409H39.5569V30.2748H49.6904C51.6117 30.2748 52.8978 29.8099 53.5486 28.8803C54.1993 27.9506 54.5247 26.6335 54.5247 24.9291V21.6753C54.5247 20.2498 54.1219 19.0877 53.3161 18.189C52.5414 17.2903 51.3328 16.8409 49.6904 16.8409ZM39.5569 41.4774H39.0921V16.3761H49.6904C51.4878 16.3761 52.8203 16.8874 53.688 17.9101C54.5557 18.9017 54.9896 20.1568 54.9896 21.6753V24.8826C54.9896 26.3082 54.8036 27.4857 54.4318 28.4154C54.0599 29.3141 53.3161 29.9339 52.2005 30.2748H52.7119C54.6022 30.2748 56.0122 30.7086 56.9419 31.5763C57.8716 32.413 58.3364 33.6371 58.3364 35.2486V41.4774H57.8716V35.2486C57.8716 33.7301 57.4532 32.599 56.6165 31.8552C55.7798 31.0805 54.4782 30.6931 52.7119 30.6931H39.5569V41.4774ZM73.3118 31.5763V33.0173H91.4406V31.5763C91.4406 30.7396 91.3631 29.9649 91.2081 29.2521C91.0842 28.5394 90.9137 27.8731 90.6968 27.2533L87.4894 19.6765C87.1486 18.8707 86.7922 18.2045 86.4203 17.6776C86.0484 17.1198 85.4286 16.8409 84.5609 16.8409H80.0055C79.0758 16.8409 78.4251 17.1198 78.0532 17.6776C77.6813 18.2045 77.3404 18.8552 77.0306 19.63L74.0556 27.2533C73.8387 27.8731 73.6527 28.5394 73.4978 29.2521C73.3738 29.9649 73.3118 30.7396 73.3118 31.5763ZM91.4406 41.4774V33.4822H73.3118V41.4774H72.847V31.5763C72.847 30.7086 72.909 29.9184 73.0329 29.2057C73.1879 28.4619 73.3893 27.7492 73.6372 27.0674L76.6122 19.444C76.9531 18.5763 77.3404 17.8481 77.7743 17.2593C78.2081 16.6705 78.9519 16.3761 80.0055 16.3761H84.5609C85.5836 16.3761 86.2963 16.6705 86.6992 17.2593C87.1331 17.8481 87.5359 18.5918 87.9078 19.4905L91.1152 27.0674C91.3631 27.7492 91.549 28.4619 91.673 29.2057C91.8279 29.9184 91.9054 30.7086 91.9054 31.5763V41.4774H91.4406ZM107.639 41.4774V16.3761H122.467V16.8409H108.104V30.1353H118.702V30.6002H108.104V41.4774H107.639ZM152.038 41.0126V41.4774H136.373V16.3761H152.038V16.8409H136.838V28.5084H148.273V28.9732H136.838V41.0126H152.038ZM174.416 41.4774C172.712 41.4774 171.318 41.3689 170.233 41.152C169.148 40.9351 168.296 40.5942 167.676 40.1294C167.057 39.6335 166.623 39.0138 166.375 38.27C166.158 37.4953 166.049 36.5656 166.049 35.481V22.4655C166.049 20.2652 166.545 18.7003 167.537 17.7706C168.529 16.8409 170.512 16.3761 173.487 16.3761H181.529V16.8409H173.487C170.76 16.8409 168.916 17.2748 167.955 18.1425C166.995 18.9792 166.514 20.4202 166.514 22.4655V35.481C166.514 37.4953 167.041 38.9208 168.095 39.7575C169.179 40.5942 171.287 41.0126 174.416 41.0126H183.202V32.1341H183.667V41.4774H174.416ZM199.1 31.5763V33.0173H217.229V31.5763C217.229 30.7396 217.151 29.9649 216.996 29.2521C216.872 28.5394 216.702 27.8731 216.485 27.2533L213.277 19.6765C212.937 18.8707 212.58 18.2045 212.208 17.6776C211.836 17.1198 211.217 16.8409 210.349 16.8409H205.793C204.864 16.8409 204.213 17.1198 203.841 17.6776C203.469 18.2045 203.128 18.8552 202.819 19.63L199.844 27.2533C199.627 27.8731 199.441 28.5394 199.286 29.2521C199.162 29.9649 199.1 30.7396 199.1 31.5763ZM217.229 41.4774V33.4822H199.1V41.4774H198.635V31.5763C198.635 30.7086 198.697 29.9184 198.821 29.2057C198.976 28.4619 199.177 27.7492 199.425 27.0674L202.4 19.444C202.741 18.5763 203.128 17.8481 203.562 17.2593C203.996 16.6705 204.74 16.3761 205.793 16.3761H210.349C211.372 16.3761 212.084 16.6705 212.487 17.2593C212.921 17.8481 213.324 18.5918 213.696 19.4905L216.903 27.0674C217.151 27.7492 217.337 28.4619 217.461 29.2057C217.616 29.9184 217.693 30.7086 217.693 31.5763V41.4774H217.229Z" fill="white"/>
<path d="M15.3737 41.4774H14.3407C14.3407 42.0479 14.8032 42.5104 15.3737 42.5104V41.4774ZM15.3737 16.8409H16.4066C16.4066 16.2704 15.9442 15.808 15.3737 15.808V16.8409ZM5.84447 16.8409H4.8115C4.8115 17.4114 5.27398 17.8739 5.84447 17.8739V16.8409ZM5.84447 16.3761V15.3431C5.27398 15.3431 4.8115 15.8056 4.8115 16.3761H5.84447ZM25.3677 16.3761H26.4007C26.4007 15.8056 25.9382 15.3431 25.3677 15.3431V16.3761ZM25.3677 16.8409V17.8739C25.9382 17.8739 26.4007 17.4114 26.4007 16.8409H25.3677ZM15.8385 16.8409V15.808C15.268 15.808 14.8055 16.2704 14.8055 16.8409H15.8385ZM15.8385 41.4774V42.5104C16.409 42.5104 16.8715 42.0479 16.8715 41.4774H15.8385ZM16.4066 41.4774V16.8409H14.3407V41.4774H16.4066ZM15.3737 15.808H5.84447V17.8739H15.3737V15.808ZM6.87745 16.8409V16.3761H4.8115V16.8409H6.87745ZM5.84447 17.4091H25.3677V15.3431H5.84447V17.4091ZM24.3347 16.3761V16.8409H26.4007V16.3761H24.3347ZM25.3677 15.808H15.8385V17.8739H25.3677V15.808ZM14.8055 16.8409V41.4774H16.8715V16.8409H14.8055ZM15.8385 40.4444H15.3737V42.5104H15.8385V40.4444ZM39.5569 16.8409V15.808C38.9864 15.808 38.5239 16.2704 38.5239 16.8409H39.5569ZM39.5569 30.2748H38.5239C38.5239 30.8453 38.9864 31.3078 39.5569 31.3078V30.2748ZM53.5486 28.8803L54.3948 29.4726V29.4726L53.5486 28.8803ZM53.3161 18.189L52.5338 18.8634C52.5381 18.8685 52.5426 18.8735 52.547 18.8785L53.3161 18.189ZM39.5569 41.4774V42.5104C40.1274 42.5104 40.5899 42.0479 40.5899 41.4774H39.5569ZM39.0921 41.4774H38.0591C38.0591 42.0479 38.5216 42.5104 39.0921 42.5104V41.4774ZM39.0921 16.3761V15.3431C38.5216 15.3431 38.0591 15.8056 38.0591 16.3761H39.0921ZM53.688 17.9101L52.9004 18.5784C52.9038 18.5824 52.9072 18.5863 52.9106 18.5903L53.688 17.9101ZM54.4318 28.4154L55.3863 28.8104L55.3909 28.7991L54.4318 28.4154ZM52.2005 30.2748L51.8987 29.2869C51.4094 29.4364 51.1033 29.9214 51.1789 30.4274C51.2545 30.9333 51.689 31.3078 52.2005 31.3078V30.2748ZM56.9419 31.5763L56.2371 32.3315C56.2416 32.3357 56.2462 32.34 56.2509 32.3441L56.9419 31.5763ZM58.3364 41.4774V42.5104C58.9069 42.5104 59.3694 42.0479 59.3694 41.4774H58.3364ZM57.8716 41.4774H56.8386C56.8386 42.0479 57.3011 42.5104 57.8716 42.5104V41.4774ZM56.6165 31.8552L55.9147 32.6132C55.9198 32.6179 55.925 32.6226 55.9302 32.6273L56.6165 31.8552ZM39.5569 30.6931V29.6602C38.9864 29.6602 38.5239 30.1226 38.5239 30.6931H39.5569ZM49.6904 15.808H39.5569V17.8739H49.6904V15.808ZM38.5239 16.8409V30.2748H40.5899V16.8409H38.5239ZM39.5569 31.3078H49.6904V29.2418H39.5569V31.3078ZM49.6904 31.3078C51.7162 31.3078 53.4476 30.8258 54.3948 29.4726L52.7023 28.2879C52.348 28.7941 51.5073 29.2418 49.6904 29.2418V31.3078ZM54.3948 29.4726C55.2142 28.3021 55.5577 26.7452 55.5577 24.9291H53.4918C53.4918 26.5219 53.1845 27.599 52.7023 28.2879L54.3948 29.4726ZM55.5577 24.9291V21.6753H53.4918V24.9291H55.5577ZM55.5577 21.6753C55.5577 20.044 55.0908 18.621 54.0853 17.4994L52.547 18.8785C53.1529 19.5543 53.4918 20.4555 53.4918 21.6753H55.5577ZM54.0985 17.5145C53.0606 16.3105 51.5128 15.808 49.6904 15.808V17.8739C51.1529 17.8739 52.0222 18.2701 52.5338 18.8634L54.0985 17.5145ZM39.5569 40.4444H39.0921V42.5104H39.5569V40.4444ZM40.125 41.4774V16.3761H38.0591V41.4774H40.125ZM39.0921 17.4091H49.6904V15.3431H39.0921V17.4091ZM49.6904 17.4091C51.2937 17.4091 52.2901 17.8591 52.9004 18.5784L54.4757 17.2418C53.3506 15.9157 51.6818 15.3431 49.6904 15.3431V17.4091ZM52.9106 18.5903C53.5887 19.3652 53.9566 20.3665 53.9566 21.6753H56.0225C56.0225 19.9471 55.5227 18.4382 54.4654 17.2298L52.9106 18.5903ZM53.9566 21.6753V24.8826H56.0225V21.6753H53.9566ZM53.9566 24.8826C53.9566 26.2281 53.7797 27.2641 53.4727 28.0318L55.3909 28.7991C55.8275 27.7074 56.0225 26.3883 56.0225 24.8826H53.9566ZM53.4773 28.0205C53.2472 28.5765 52.7842 29.0163 51.8987 29.2869L52.5024 31.2627C53.8481 30.8515 54.8726 30.0517 55.3862 28.8104L53.4773 28.0205ZM52.2005 31.3078H52.7119V29.2418H52.2005V31.3078ZM52.7119 31.3078C54.4655 31.3078 55.5738 31.7124 56.2371 32.3315L57.6467 30.8212C56.4507 29.7049 54.7389 29.2418 52.7119 29.2418V31.3078ZM56.2509 32.3441C56.904 32.932 57.3034 33.8401 57.3034 35.2486H59.3694C59.3694 33.4341 58.8391 31.8941 57.6329 30.8085L56.2509 32.3441ZM57.3034 35.2486V41.4774H59.3694V35.2486H57.3034ZM58.3364 40.4444H57.8716V42.5104H58.3364V40.4444ZM58.9045 41.4774V35.2486H56.8386V41.4774H58.9045ZM58.9045 35.2486C58.9045 33.5451 58.4307 32.0858 57.3028 31.0832L55.9302 32.6273C56.4757 33.1122 56.8386 33.9151 56.8386 35.2486H58.9045ZM57.3183 31.0973C56.2092 30.0703 54.6007 29.6602 52.7119 29.6602V31.7261C54.3558 31.7261 55.3504 32.0907 55.9147 32.6132L57.3183 31.0973ZM52.7119 29.6602H39.5569V31.7261H52.7119V29.6602ZM38.5239 30.6931V41.4774H40.5899V30.6931H38.5239ZM73.3118 33.0173H72.2789C72.2789 33.5878 72.7413 34.0503 73.3118 34.0503V33.0173ZM91.4406 33.0173V34.0503C92.0111 34.0503 92.4735 33.5878 92.4735 33.0173H91.4406ZM91.2081 29.2521L90.1904 29.4291C90.1929 29.4433 90.1957 29.4575 90.1987 29.4716L91.2081 29.2521ZM90.6968 27.2533L91.6718 26.9121C91.6646 26.8914 91.6566 26.8709 91.6481 26.8506L90.6968 27.2533ZM87.4894 19.6765L86.5381 20.0789L86.5382 20.0791L87.4894 19.6765ZM86.4203 17.6776L85.5608 18.2506C85.5659 18.2583 85.5711 18.2658 85.5764 18.2733L86.4203 17.6776ZM78.0532 17.6776L78.8971 18.2733C78.9024 18.2658 78.9076 18.2583 78.9127 18.2506L78.0532 17.6776ZM77.0306 19.63L76.0714 19.2463L76.0683 19.2544L77.0306 19.63ZM74.0556 27.2533L73.0933 26.8778C73.0889 26.8892 73.0846 26.9006 73.0806 26.9121L74.0556 27.2533ZM73.4978 29.2521L72.4884 29.0327C72.4853 29.0468 72.4826 29.0609 72.4801 29.0751L73.4978 29.2521ZM91.4406 41.4774H90.4076C90.4076 42.0479 90.8701 42.5104 91.4406 42.5104V41.4774ZM91.4406 33.4822H92.4735C92.4735 32.9117 92.0111 32.4492 91.4406 32.4492V33.4822ZM73.3118 33.4822V32.4492C72.7413 32.4492 72.2789 32.9117 72.2789 33.4822H73.3118ZM73.3118 41.4774V42.5104C73.8823 42.5104 74.3448 42.0479 74.3448 41.4774H73.3118ZM72.847 41.4774H71.814C71.814 42.0479 72.2765 42.5104 72.847 42.5104V41.4774ZM73.0329 29.2057L72.0217 28.995C72.0193 29.0062 72.0172 29.0174 72.0152 29.0287L73.0329 29.2057ZM73.6372 27.0674L72.6749 26.6919C72.672 26.6993 72.6692 26.7068 72.6665 26.7144L73.6372 27.0674ZM76.6122 19.444L75.6508 19.0663L75.6499 19.0685L76.6122 19.444ZM77.7743 17.2593L78.6059 17.8721V17.8721L77.7743 17.2593ZM86.6992 17.2593L85.8467 17.8426C85.8535 17.8525 85.8605 17.8624 85.8676 17.8721L86.6992 17.2593ZM87.9078 19.4905L86.9533 19.8855L86.9565 19.8932L87.9078 19.4905ZM91.1152 27.0674L92.086 26.7144C92.0799 26.6977 92.0734 26.6811 92.0664 26.6647L91.1152 27.0674ZM91.673 29.2057L90.6541 29.3755C90.6568 29.3921 90.66 29.4086 90.6636 29.4251L91.673 29.2057ZM91.9054 41.4774V42.5104C92.4759 42.5104 92.9384 42.0479 92.9384 41.4774H91.9054ZM72.2789 31.5763V33.0173H74.3448V31.5763H72.2789ZM73.3118 34.0503H91.4406V31.9844H73.3118V34.0503ZM92.4735 33.0173V31.5763H90.4076V33.0173H92.4735ZM92.4735 31.5763C92.4735 30.6764 92.3903 29.8272 92.2175 29.0327L90.1987 29.4716C90.3359 30.1026 90.4076 30.8029 90.4076 31.5763H92.4735ZM92.2258 29.0751C92.0931 28.3121 91.9092 27.5904 91.6718 26.9121L89.7218 27.5946C89.9183 28.1558 90.0752 28.7666 90.1904 29.4291L92.2258 29.0751ZM91.6481 26.8506L88.4407 19.2738L86.5382 20.0791L89.7456 27.656L91.6481 26.8506ZM88.4408 19.274C88.0806 18.4225 87.6907 17.6862 87.2642 17.0819L85.5764 18.2733C85.8936 18.7227 86.2166 19.3189 86.5381 20.0789L88.4408 19.274ZM87.2798 17.1047C86.6608 16.1762 85.6602 15.808 84.561 15.808V17.8739C85.1971 17.8739 85.4361 18.0635 85.5608 18.2506L87.2798 17.1047ZM84.561 15.808H80.0055V17.8739H84.561V15.808ZM80.0055 15.808C78.8764 15.808 77.826 16.1563 77.1937 17.1047L78.9127 18.2506C79.0242 18.0834 79.2753 17.8739 80.0055 17.8739V15.808ZM77.2093 17.0819C76.7796 17.6907 76.4031 18.4173 76.0715 19.2463L77.9896 20.0136C78.2778 19.2932 78.5831 18.7182 78.8971 18.2733L77.2093 17.0819ZM76.0683 19.2544L73.0933 26.8778L75.0179 27.6289L77.9929 20.0055L76.0683 19.2544ZM73.0806 26.9121C72.8483 27.5758 72.6513 28.2831 72.4884 29.0327L74.5072 29.4716C74.6541 28.7956 74.829 28.1704 75.0306 27.5946L73.0806 26.9121ZM72.4801 29.0751C72.3445 29.8546 72.2789 30.6893 72.2789 31.5763H74.3448C74.3448 30.79 74.4031 30.0752 74.5155 29.4291L72.4801 29.0751ZM92.4735 41.4774V33.4822H90.4076V41.4774H92.4735ZM91.4406 32.4492H73.3118V34.5151H91.4406V32.4492ZM72.2789 33.4822V41.4774H74.3448V33.4822H72.2789ZM73.3118 40.4444H72.847V42.5104H73.3118V40.4444ZM73.88 41.4774V31.5763H71.814V41.4774H73.88ZM73.88 31.5763C73.88 30.7567 73.9386 30.0268 74.0506 29.3826L72.0152 29.0287C71.8793 29.81 71.814 30.6606 71.814 31.5763H73.88ZM74.0442 29.4163C74.1896 28.7187 74.3778 28.0536 74.608 27.4204L72.6665 26.7144C72.4009 27.4447 72.1862 28.2051 72.0217 28.995L74.0442 29.4163ZM74.5995 27.4429L77.5745 19.8196L75.6499 19.0685L72.6749 26.6919L74.5995 27.4429ZM77.5736 19.8217C77.8902 19.016 78.2376 18.3719 78.6059 17.8721L76.9427 16.6465C76.4433 17.3243 76.016 18.1367 75.6508 19.0663L77.5736 19.8217ZM78.6059 17.8721C78.7694 17.6502 79.1273 17.4091 80.0055 17.4091V15.3431C78.7765 15.3431 77.6469 15.6908 76.9427 16.6465L78.6059 17.8721ZM80.0055 17.4091H84.561V15.3431H80.0055V17.4091ZM84.561 17.4091C85.4012 17.4091 85.7113 17.6447 85.8467 17.8426L87.5517 16.676C86.8814 15.6963 85.766 15.3431 84.561 15.3431V17.4091ZM85.8676 17.8721C86.2386 18.3756 86.6036 19.0404 86.9533 19.8855L88.8623 19.0956C88.4682 18.1433 88.0275 17.3206 87.5308 16.6465L85.8676 17.8721ZM86.9565 19.8932L90.1639 27.4701L92.0664 26.6647L88.859 19.0878L86.9565 19.8932ZM90.1444 27.4204C90.3699 28.0404 90.5401 28.6917 90.6541 29.3755L92.6919 29.0358C92.558 28.2321 92.3563 27.4579 92.086 26.7144L90.1444 27.4204ZM90.6636 29.4251C90.8002 30.0537 90.8724 30.769 90.8724 31.5763H92.9384C92.9384 30.6483 92.8556 29.7831 92.6824 28.9862L90.6636 29.4251ZM90.8724 31.5763V41.4774H92.9384V31.5763H90.8724ZM91.9054 40.4444H91.4406V42.5104H91.9054V40.4444ZM107.639 41.4774H106.606C106.606 42.0479 107.068 42.5104 107.639 42.5104V41.4774ZM107.639 16.3761V15.3431C107.068 15.3431 106.606 15.8056 106.606 16.3761H107.639ZM122.467 16.3761H123.5C123.5 15.8056 123.038 15.3431 122.467 15.3431V16.3761ZM122.467 16.8409V17.8739C123.038 17.8739 123.5 17.4114 123.5 16.8409H122.467ZM108.104 16.8409V15.808C107.533 15.808 107.071 16.2704 107.071 16.8409H108.104ZM108.104 30.1353H107.071C107.071 30.7058 107.533 31.1683 108.104 31.1683V30.1353ZM118.702 30.1353H119.735C119.735 29.5648 119.272 29.1024 118.702 29.1024V30.1353ZM118.702 30.6002V31.6331C119.272 31.6331 119.735 31.1707 119.735 30.6002H118.702ZM108.104 30.6002V29.5672C107.533 29.5672 107.071 30.0297 107.071 30.6002H108.104ZM108.104 41.4774V42.5104C108.674 42.5104 109.137 42.0479 109.137 41.4774H108.104ZM108.672 41.4774V16.3761H106.606V41.4774H108.672ZM107.639 17.4091H122.467V15.3431H107.639V17.4091ZM121.434 16.3761V16.8409H123.5V16.3761H121.434ZM122.467 15.808H108.104V17.8739H122.467V15.808ZM107.071 16.8409V30.1353H109.137V16.8409H107.071ZM108.104 31.1683H118.702V29.1024H108.104V31.1683ZM117.669 30.1353V30.6002H119.735V30.1353H117.669ZM118.702 29.5672H108.104V31.6331H118.702V29.5672ZM107.071 30.6002V41.4774H109.137V30.6002H107.071ZM108.104 40.4444H107.639V42.5104H108.104V40.4444ZM152.038 41.0126H153.071C153.071 40.4421 152.609 39.9796 152.038 39.9796V41.0126ZM152.038 41.4774V42.5104C152.609 42.5104 153.071 42.0479 153.071 41.4774H152.038ZM136.373 41.4774H135.34C135.34 42.0479 135.803 42.5104 136.373 42.5104V41.4774ZM136.373 16.3761V15.3431C135.803 15.3431 135.34 15.8056 135.34 16.3761H136.373ZM152.038 16.3761H153.071C153.071 15.8056 152.609 15.3431 152.038 15.3431V16.3761ZM152.038 16.8409V17.8739C152.609 17.8739 153.071 17.4114 153.071 16.8409H152.038ZM136.838 16.8409V15.808C136.268 15.808 135.805 16.2704 135.805 16.8409H136.838ZM136.838 28.5084H135.805C135.805 29.0789 136.268 29.5414 136.838 29.5414V28.5084ZM148.273 28.5084H149.306C149.306 27.9379 148.844 27.4754 148.273 27.4754V28.5084ZM148.273 28.9732V30.0062C148.844 30.0062 149.306 29.5437 149.306 28.9732H148.273ZM136.838 28.9732V27.9403C136.268 27.9403 135.805 28.4027 135.805 28.9732H136.838ZM136.838 41.0126H135.805C135.805 41.5831 136.268 42.0455 136.838 42.0455V41.0126ZM151.006 41.0126V41.4774H153.071V41.0126H151.006ZM152.038 40.4444H136.373V42.5104H152.038V40.4444ZM137.406 41.4774V16.3761H135.34V41.4774H137.406ZM136.373 17.4091H152.038V15.3431H136.373V17.4091ZM151.006 16.3761V16.8409H153.071V16.3761H151.006ZM152.038 15.808H136.838V17.8739H152.038V15.808ZM135.805 16.8409V28.5084H137.871V16.8409H135.805ZM136.838 29.5414H148.273V27.4754H136.838V29.5414ZM147.24 28.5084V28.9732H149.306V28.5084H147.24ZM148.273 27.9403H136.838V30.0062H148.273V27.9403ZM135.805 28.9732V41.0126H137.871V28.9732H135.805ZM136.838 42.0455H152.038V39.9796H136.838V42.0455ZM170.233 41.152L170.03 42.1649L170.233 41.152ZM167.676 40.1294L167.031 40.936C167.039 40.9427 167.048 40.9493 167.057 40.9557L167.676 40.1294ZM166.375 38.27L165.38 38.5485C165.385 38.5647 165.389 38.5807 165.395 38.5967L166.375 38.27ZM167.537 17.7706L168.243 18.5242L167.537 17.7706ZM181.529 16.3761H182.561C182.561 15.8056 182.099 15.3431 181.529 15.3431V16.3761ZM181.529 16.8409V17.8739C182.099 17.8739 182.561 17.4114 182.561 16.8409H181.529ZM167.955 18.1425L168.634 18.9214C168.638 18.9174 168.643 18.9132 168.648 18.9091L167.955 18.1425ZM168.095 39.7575L167.452 40.5664C167.456 40.5694 167.46 40.5724 167.464 40.5754L168.095 39.7575ZM183.202 41.0126V42.0455C183.772 42.0455 184.235 41.5831 184.235 41.0126H183.202ZM183.202 32.1341V31.1012C182.631 31.1012 182.169 31.5636 182.169 32.1341H183.202ZM183.667 32.1341H184.7C184.7 31.5636 184.237 31.1012 183.667 31.1012V32.1341ZM183.667 41.4774V42.5104C184.237 42.5104 184.7 42.0479 184.7 41.4774H183.667ZM174.416 40.4444C172.748 40.4444 171.428 40.3376 170.436 40.1391L170.03 42.1649C171.207 42.4003 172.676 42.5104 174.416 42.5104V40.4444ZM170.436 40.1391C169.442 39.9404 168.751 39.6444 168.296 39.303L167.057 40.9557C167.841 41.544 168.855 41.9298 170.03 42.1649L170.436 40.1391ZM168.322 39.3228C167.855 38.9497 167.539 38.4957 167.355 37.9434L165.395 38.5967C165.707 39.5318 166.258 40.3174 167.031 40.936L168.322 39.3228ZM167.369 37.9915C167.185 37.3327 167.082 36.5019 167.082 35.481H165.016C165.016 36.6293 165.131 37.6579 165.38 38.5485L167.369 37.9915ZM167.082 35.481V22.4655H165.016V35.481H167.082ZM167.082 22.4655C167.082 20.3799 167.558 19.1664 168.243 18.5242L166.83 17.017C165.532 18.2342 165.016 20.1506 165.016 22.4655H167.082ZM168.243 18.5242C168.557 18.23 169.107 17.9406 170.004 17.7304C170.892 17.5223 172.046 17.4091 173.487 17.4091V15.3431C171.953 15.3431 170.628 15.4623 169.532 15.719C168.446 15.9737 167.508 16.3815 166.83 17.017L168.243 18.5242ZM173.487 17.4091H181.529V15.3431H173.487V17.4091ZM180.496 16.3761V16.8409H182.561V16.3761H180.496ZM181.529 15.808H173.487V17.8739H181.529V15.808ZM173.487 15.808C172.075 15.808 170.847 15.9196 169.822 16.1608C168.804 16.4004 167.919 16.7835 167.263 17.3759L168.648 18.9091C168.952 18.6338 169.47 18.3661 170.295 18.1718C171.114 17.9792 172.171 17.8739 173.487 17.8739V15.808ZM167.277 17.3635C165.985 18.4889 165.481 20.2991 165.481 22.4655H167.547C167.547 20.5413 168.004 19.4695 168.634 18.9214L167.277 17.3635ZM165.481 22.4655V35.481H167.547V22.4655H165.481ZM165.481 35.481C165.481 37.6495 166.049 39.4518 167.452 40.5664L168.737 38.9486C168.033 38.3898 167.547 37.341 167.547 35.481H165.481ZM167.464 40.5754C168.184 41.131 169.157 41.4876 170.287 41.712C171.43 41.9388 172.812 42.0455 174.416 42.0455V39.9796C172.891 39.9796 171.655 39.8772 170.69 39.6856C169.713 39.4916 169.09 39.2207 168.726 38.9396L167.464 40.5754ZM174.416 42.0455H183.202V39.9796H174.416V42.0455ZM184.235 41.0126V32.1341H182.169V41.0126H184.235ZM183.202 33.1671H183.667V31.1012H183.202V33.1671ZM182.634 32.1341V41.4774H184.7V32.1341H182.634ZM183.667 40.4444H174.416V42.5104H183.667V40.4444ZM199.1 33.0173H198.067C198.067 33.5878 198.529 34.0503 199.1 34.0503V33.0173ZM217.229 33.0173V34.0503C217.799 34.0503 218.261 33.5878 218.261 33.0173H217.229ZM216.996 29.2521L215.978 29.4291C215.981 29.4433 215.984 29.4575 215.987 29.4716L216.996 29.2521ZM216.485 27.2533L217.46 26.9121C217.452 26.8914 217.445 26.8709 217.436 26.8506L216.485 27.2533ZM213.277 19.6765L212.326 20.0789L212.326 20.0791L213.277 19.6765ZM212.208 17.6776L211.349 18.2506C211.354 18.2583 211.359 18.2658 211.364 18.2733L212.208 17.6776ZM203.841 17.6776L204.685 18.2733C204.69 18.2658 204.696 18.2583 204.701 18.2506L203.841 17.6776ZM202.819 19.63L201.859 19.2463L201.856 19.2544L202.819 19.63ZM199.844 27.2533L198.881 26.8778C198.877 26.8892 198.873 26.9006 198.869 26.9121L199.844 27.2533ZM199.286 29.2521L198.276 29.0327C198.273 29.0468 198.271 29.0609 198.268 29.0751L199.286 29.2521ZM217.229 41.4774H216.196C216.196 42.0479 216.658 42.5104 217.229 42.5104V41.4774ZM217.229 33.4822H218.261C218.261 32.9117 217.799 32.4492 217.229 32.4492V33.4822ZM199.1 33.4822V32.4492C198.529 32.4492 198.067 32.9117 198.067 33.4822H199.1ZM199.1 41.4774V42.5104C199.67 42.5104 200.133 42.0479 200.133 41.4774H199.1ZM198.635 41.4774H197.602C197.602 42.0479 198.064 42.5104 198.635 42.5104V41.4774ZM198.821 29.2057L197.81 28.995C197.807 29.0062 197.805 29.0174 197.803 29.0287L198.821 29.2057ZM199.425 27.0674L198.463 26.6919C198.46 26.6993 198.457 26.7068 198.454 26.7144L199.425 27.0674ZM202.4 19.444L201.439 19.0663L201.438 19.0685L202.4 19.444ZM203.562 17.2593L204.394 17.8721V17.8721L203.562 17.2593ZM212.487 17.2593L211.635 17.8426C211.641 17.8525 211.648 17.8624 211.656 17.8721L212.487 17.2593ZM213.696 19.4905L212.741 19.8855L212.744 19.8932L213.696 19.4905ZM216.903 27.0674L217.874 26.7144C217.868 26.6977 217.861 26.6811 217.854 26.6647L216.903 27.0674ZM217.461 29.2057L216.442 29.3755C216.445 29.3921 216.448 29.4086 216.452 29.4251L217.461 29.2057ZM217.693 41.4774V42.5104C218.264 42.5104 218.726 42.0479 218.726 41.4774H217.693ZM198.067 31.5763V33.0173H200.133V31.5763H198.067ZM199.1 34.0503H217.229V31.9844H199.1V34.0503ZM218.261 33.0173V31.5763H216.196V33.0173H218.261ZM218.261 31.5763C218.261 30.6764 218.178 29.8272 218.005 29.0327L215.987 29.4716C216.124 30.1026 216.196 30.8029 216.196 31.5763H218.261ZM218.014 29.0751C217.881 28.3121 217.697 27.5904 217.46 26.9121L215.51 27.5946C215.706 28.1558 215.863 28.7666 215.978 29.4291L218.014 29.0751ZM217.436 26.8506L214.229 19.2738L212.326 20.0791L215.534 27.656L217.436 26.8506ZM214.229 19.274C213.868 18.4225 213.479 17.6862 213.052 17.0819L211.364 18.2733C211.682 18.7227 212.005 19.3189 212.326 20.0789L214.229 19.274ZM213.068 17.1047C212.449 16.1762 211.448 15.808 210.349 15.808V17.8739C210.985 17.8739 211.224 18.0635 211.349 18.2506L213.068 17.1047ZM210.349 15.808H205.793V17.8739H210.349V15.808ZM205.793 15.808C204.664 15.808 203.614 16.1563 202.982 17.1047L204.701 18.2506C204.812 18.0834 205.063 17.8739 205.793 17.8739V15.808ZM202.997 17.0819C202.568 17.6907 202.191 18.4173 201.859 19.2463L203.778 20.0136C204.066 19.2932 204.371 18.7182 204.685 18.2733L202.997 17.0819ZM201.856 19.2544L198.881 26.8778L200.806 27.6289L203.781 20.0055L201.856 19.2544ZM198.869 26.9121C198.636 27.5758 198.439 28.2831 198.276 29.0327L200.295 29.4716C200.442 28.7956 200.617 28.1704 200.819 27.5946L198.869 26.9121ZM198.268 29.0751C198.132 29.8546 198.067 30.6893 198.067 31.5763H200.133C200.133 30.79 200.191 30.0752 200.303 29.4291L198.268 29.0751ZM218.261 41.4774V33.4822H216.196V41.4774H218.261ZM217.229 32.4492H199.1V34.5151H217.229V32.4492ZM198.067 33.4822V41.4774H200.133V33.4822H198.067ZM199.1 40.4444H198.635V42.5104H199.1V40.4444ZM199.668 41.4774V31.5763H197.602V41.4774H199.668ZM199.668 31.5763C199.668 30.7567 199.727 30.0268 199.839 29.3826L197.803 29.0287C197.667 29.81 197.602 30.6606 197.602 31.5763H199.668ZM199.832 29.4163C199.978 28.7187 200.166 28.0536 200.396 27.4204L198.454 26.7144C198.189 27.4447 197.974 28.2051 197.81 28.995L199.832 29.4163ZM200.387 27.4429L203.362 19.8196L201.438 19.0685L198.463 26.6919L200.387 27.4429ZM203.362 19.8217C203.678 19.016 204.026 18.3719 204.394 17.8721L202.731 16.6465C202.231 17.3243 201.804 18.1367 201.439 19.0663L203.362 19.8217ZM204.394 17.8721C204.557 17.6502 204.915 17.4091 205.793 17.4091V15.3431C204.564 15.3431 203.435 15.6908 202.731 16.6465L204.394 17.8721ZM205.793 17.4091H210.349V15.3431H205.793V17.4091ZM210.349 17.4091C211.189 17.4091 211.499 17.6447 211.635 17.8426L213.34 16.676C212.669 15.6963 211.554 15.3431 210.349 15.3431V17.4091ZM211.656 17.8721C212.027 18.3756 212.392 19.0404 212.741 19.8855L214.65 19.0956C214.256 18.1433 213.815 17.3206 213.319 16.6465L211.656 17.8721ZM212.744 19.8932L215.952 27.4701L217.854 26.6647L214.647 19.0878L212.744 19.8932ZM215.932 27.4204C216.158 28.0404 216.328 28.6917 216.442 29.3755L218.48 29.0358C218.346 28.2321 218.144 27.4579 217.874 26.7144L215.932 27.4204ZM216.452 29.4251C216.588 30.0537 216.66 30.769 216.66 31.5763H218.726C218.726 30.6483 218.644 29.7831 218.47 28.9862L216.452 29.4251ZM216.66 31.5763V41.4774H218.726V31.5763H216.66ZM217.693 40.4444H217.229V42.5104H217.693V40.4444Z" fill="white"/>
<line x1="3.45838" y1="45.5953" x2="25.7189" y2="45.5953" stroke="#FF0000" stroke-width="1.03298" stroke-linecap="round"/>
</svg>
