<svg width="13" height="13" viewBox="0 0 13 13" fill="none" xmlns="http://www.w3.org/2000/svg">
<path d="M12.7011 10.0927C12.6 9.9251 12.4679 9.78014 12.3123 9.66633C12.1569 9.55252 11.9811 9.47215 11.7955 9.42988C11.0851 9.25779 10.469 8.79979 10.0818 8.15599C9.69467 7.51217 9.56788 6.73489 9.72917 5.99401C9.79118 5.70765 9.77059 5.40859 9.66996 5.13439C9.56934 4.86018 9.39318 4.62305 9.16362 4.4528C8.93404 4.28255 8.66129 4.18677 8.37961 4.17745C8.09794 4.16814 7.81992 4.24572 7.58045 4.40047C7.34097 4.55523 7.15074 4.78022 7.03362 5.04723C6.91651 5.31425 6.87774 5.61133 6.92221 5.90121C6.96665 6.19109 7.09235 6.46083 7.28349 6.67654C7.47462 6.89224 7.7227 7.04432 7.99653 7.11364C8.3508 7.19688 8.6858 7.35213 8.98235 7.57051C9.2789 7.78886 9.53116 8.06606 9.72467 8.38616C9.91818 8.70629 10.0491 9.06304 10.11 9.43597C10.1709 9.80891 10.1606 10.1907 10.0795 10.5595C10.0315 10.7972 10.0401 11.0435 10.1045 11.277C10.1688 11.5105 10.287 11.724 10.4488 11.899C10.6105 12.074 10.8109 12.2052 11.0324 12.281C11.2539 12.3568 11.4899 12.3751 11.7198 12.3342C11.9497 12.2933 12.1664 12.1944 12.3512 12.0462C12.536 11.898 12.6832 11.705 12.7799 11.484C12.8767 11.263 12.9201 11.0207 12.9064 10.7782C12.8926 10.5357 12.8222 10.3004 12.7011 10.0927Z" fill="white"/>
<path d="M3.90918 8.4393C4.15934 8.5815 4.44456 8.6426 4.72827 8.61477C5.012 8.58693 5.28125 8.47143 5.50151 8.28308C5.72178 8.09472 5.883 7.84211 5.96446 7.55766C6.04594 7.2732 6.04397 6.96988 5.95879 6.68661C5.85083 6.32538 5.81237 5.94554 5.84562 5.56881C5.87888 5.19208 5.98316 4.8259 6.15256 4.49126C6.32193 4.15661 6.55306 3.86008 6.83267 3.61865C7.11229 3.37722 7.43489 3.19568 7.782 3.08439C8.05121 2.99655 8.28944 2.82772 8.46675 2.59917C8.64406 2.37062 8.75251 2.09255 8.77845 1.79993C8.8044 1.50732 8.74668 1.21324 8.61256 0.954742C8.47843 0.696221 8.27389 0.4848 8.0247 0.347094C7.77548 0.209388 7.49275 0.151525 7.21207 0.180821C6.93137 0.210099 6.66526 0.325204 6.44721 0.511671C6.22917 0.698119 6.06896 0.947592 5.9867 1.22868C5.90447 1.50976 5.90387 1.80991 5.985 2.09134C6.19798 2.81791 6.12596 3.6028 5.78472 4.27418C5.44346 4.94556 4.86078 5.44878 4.16419 5.6737C3.8892 5.75677 3.64447 5.9239 3.4617 6.15349C3.27893 6.38308 3.16652 6.66453 3.13904 6.9614C3.11158 7.25828 3.1703 7.55691 3.30761 7.81863C3.44492 8.08036 3.65449 8.29311 3.90918 8.42936V8.4393Z" fill="white"/>
<path d="M7.58885 8.19604C7.39872 8.20299 7.21185 8.2494 7.03915 8.33254C6.86644 8.41568 6.71141 8.53386 6.5831 8.68022C6.08532 9.23489 5.39698 9.56168 4.66858 9.58913C3.94017 9.61659 3.23095 9.34246 2.69599 8.8267C2.55777 8.69158 2.39515 8.58644 2.21758 8.51739C2.04003 8.44833 1.85106 8.41675 1.66166 8.42447C1.42854 8.43593 1.20164 8.50666 1.0008 8.63048C0.799934 8.75431 0.631241 8.92746 0.50941 9.13482C0.387561 9.3422 0.316305 9.57749 0.301823 9.82016C0.287358 10.0628 0.330105 10.3055 0.426368 10.527C0.522632 10.7485 0.669452 10.9421 0.854046 11.0909C1.03864 11.2396 1.25537 11.3391 1.48534 11.3805C1.7153 11.4219 1.95152 11.4041 2.17335 11.3286C2.39519 11.253 2.5959 11.1221 2.75795 10.9471C3.00449 10.669 3.30124 10.4443 3.63124 10.2859C3.96125 10.1276 4.31801 10.0385 4.68108 10.024C5.04416 10.0095 5.40643 10.0697 5.74713 10.2013C6.08782 10.3328 6.40026 10.5331 6.66653 10.7907C6.83988 10.9539 7.04897 11.0703 7.27551 11.1298C7.50206 11.1893 7.73914 11.1901 7.96604 11.1321C8.19294 11.0741 8.40272 10.959 8.57707 10.797C8.75142 10.635 8.885 10.4309 8.96615 10.2027C9.04728 9.97441 9.0735 9.72894 9.04252 9.48768C9.01152 9.24644 8.92426 9.01678 8.78835 8.81878C8.65246 8.6208 8.47208 8.46052 8.26297 8.35195C8.05386 8.2434 7.8224 8.18985 7.58885 8.19604Z" fill="white"/>
</svg>
