<svg width="1713" height="964" viewBox="0 0 1713 964" fill="none" xmlns="http://www.w3.org/2000/svg">
<g clip-path="url(#clip0_102_2)">
<rect width="1713" height="964" fill="#161616"/>
<path fill-rule="evenodd" clip-rule="evenodd" d="M0 706.613L29.4422 711.966C59.7766 717.319 118.661 728.025 178.437 749.438C238.214 770.85 297.098 802.969 356.875 835.088C416.652 867.206 475.536 899.325 535.312 893.972C595.089 888.619 653.973 845.794 713.75 845.794C773.527 845.794 832.411 888.619 892.187 915.384C951.964 942.15 1010.85 952.856 1041.18 958.209L1070.62 963.563V963.563H1041.18C1010.85 963.563 951.964 963.563 892.187 963.563C832.411 963.563 773.527 963.563 713.75 963.563C653.973 963.563 595.089 963.563 535.312 963.563C475.536 963.563 416.652 963.563 356.875 963.563C297.098 963.563 238.214 963.563 178.437 963.563C118.661 963.563 59.7766 963.563 29.4422 963.563H0V706.613Z" fill="white" fill-opacity="0.1"/>
<path fill-rule="evenodd" clip-rule="evenodd" d="M-28.5498 753.006L0.892382 758.359C31.2268 763.712 90.1111 774.419 149.888 795.831C209.664 817.244 268.549 849.363 328.325 881.481C388.102 913.6 446.986 945.719 506.763 940.366C566.539 935.013 625.424 892.188 685.2 892.188C744.977 892.188 803.861 935.013 863.638 961.778C923.414 988.544 982.299 999.25 1012.63 1004.6L1042.08 1009.96V1009.96H1012.63C982.299 1009.96 923.414 1009.96 863.638 1009.96C803.861 1009.96 744.977 1009.96 685.2 1009.96C625.424 1009.96 566.539 1009.96 506.763 1009.96C446.986 1009.96 388.102 1009.96 328.325 1009.96C268.549 1009.96 209.664 1009.96 149.888 1009.96C90.1111 1009.96 31.2268 1009.96 0.892382 1009.96H-28.5498V753.006Z" fill="white" fill-opacity="0.1"/>
<path fill-rule="evenodd" clip-rule="evenodd" d="M-31.2266 802.969L-1.78438 808.322C28.55 813.675 87.4344 824.381 147.211 845.794C206.987 867.206 265.872 899.325 325.648 931.444C385.425 963.563 444.309 995.681 504.086 990.328C563.862 984.975 622.747 942.15 682.523 942.15C742.3 942.15 801.184 984.975 860.961 1011.74C920.737 1038.51 979.622 1049.21 1009.96 1054.57L1039.4 1059.92V1059.92H1009.96C979.622 1059.92 920.737 1059.92 860.961 1059.92C801.184 1059.92 742.3 1059.92 682.523 1059.92C622.747 1059.92 563.862 1059.92 504.086 1059.92C444.309 1059.92 385.425 1059.92 325.648 1059.92C265.872 1059.92 206.987 1059.92 147.211 1059.92C87.4344 1059.92 28.55 1059.92 -1.78438 1059.92H-31.2266V802.969Z" fill="white" fill-opacity="0.1"/>
<path d="M954.377 324.527C888.232 160.346 1094.95 23.6681 1220.11 148.829L1552.49 481.205C1640.98 569.693 1600.49 720.79 1479.61 753.179L985.152 885.67C816.06 930.978 704.647 713.714 840.118 602.842L917.879 539.201C972.903 494.168 992.277 418.602 965.706 352.65L954.377 324.527Z" fill="#0C0C0C"/>
<path d="M989.218 375.062C933.204 236.026 1108.26 120.28 1214.26 226.272L1495.73 507.745C1570.67 582.681 1536.38 710.637 1434.01 738.066L1015.28 850.266C872.085 888.635 777.735 704.645 892.459 610.753L958.31 556.859C1004.91 518.723 1021.31 454.729 998.813 398.878L989.218 375.062Z" fill="black"/>
<circle cx="1032.24" cy="424.211" r="2.23047" transform="rotate(-4 1032.24 424.211)" fill="white"/>
<circle cx="1126.83" cy="459.631" r="2.23047" transform="rotate(-4 1126.83 459.631)" fill="white"/>
<circle cx="1246.42" cy="404.762" r="2.23047" transform="rotate(-4 1246.42 404.762)" fill="white"/>
<circle cx="1299.63" cy="487.795" r="2.23047" transform="rotate(-4 1299.63 487.795)" fill="white"/>
<circle cx="1110.62" cy="803.307" r="2.23047" transform="rotate(-4 1110.62 803.307)" fill="white"/>
<circle cx="1039.61" cy="593.625" r="2.23047" transform="rotate(-4 1039.61 593.625)" fill="white"/>
<circle cx="1245.68" cy="598.891" r="2.23047" transform="rotate(-4 1245.68 598.891)" fill="white"/>
<circle cx="1431.15" cy="526.894" r="2.23047" transform="rotate(-4 1431.15 526.894)" fill="white"/>
<circle cx="1018.06" cy="809.78" r="2.23047" transform="rotate(-4 1018.06 809.78)" fill="white"/>
<circle cx="1383.54" cy="651.856" r="2.23047" transform="rotate(-4 1383.54 651.856)" fill="white"/>
<circle cx="1112.24" cy="698.553" r="2.23047" transform="rotate(-4 1112.24 698.553)" fill="white"/>
<circle cx="1488.55" cy="695.492" r="2.23047" transform="rotate(-4 1488.55 695.492)" fill="white"/>
<circle cx="933.787" cy="755.75" r="2.23047" transform="rotate(-4 933.787 755.75)" fill="white"/>
<circle cx="1078.35" cy="277.888" r="2.23047" transform="rotate(-4 1078.35 277.888)" fill="white"/>
<circle cx="1159.91" cy="318.692" r="2.23047" transform="rotate(-4 1159.91 318.692)" fill="white"/>
<circle cx="1128.92" cy="572.622" r="0.892187" transform="rotate(-4 1128.92 572.622)" fill="white"/>
<circle cx="1339.19" cy="701.911" r="0.892187" transform="rotate(-4 1339.19 701.911)" fill="white"/>
<circle cx="1433.94" cy="726.589" r="0.892187" transform="rotate(-4 1433.94 726.589)" fill="white"/>
<circle cx="1073.79" cy="756.245" r="0.892187" transform="rotate(-4 1073.79 756.245)" fill="white"/>
<circle cx="1031.12" cy="683.208" r="0.892187" transform="rotate(-4 1031.12 683.208)" fill="white"/>
<circle cx="1201.08" cy="734.823" r="0.892187" transform="rotate(-4 1201.08 734.823)" fill="white"/>
<circle cx="1034.77" cy="492.453" r="0.892187" transform="rotate(-4 1034.77 492.453)" fill="white"/>
<circle cx="1206.7" cy="508.156" r="0.892187" transform="rotate(-4 1206.7 508.156)" fill="white"/>
<circle cx="1145.85" cy="392.566" r="0.892187" transform="rotate(-4 1145.85 392.566)" fill="white"/>
<circle cx="1285.71" cy="333.595" r="0.892187" transform="rotate(-4 1285.71 333.595)" fill="white"/>
<circle cx="1058.23" cy="367.39" r="0.892187" transform="rotate(-4 1058.23 367.39)" fill="white"/>
<circle cx="1147.19" cy="258.317" r="0.892187" transform="rotate(-4 1147.19 258.317)" fill="white"/>
<circle cx="1180.49" cy="606.58" r="0.892187" transform="rotate(-4 1180.49 606.58)" fill="white"/>
<circle cx="1528.55" cy="621.593" r="0.892187" transform="rotate(-4 1528.55 621.593)" fill="white"/>
<circle cx="1401.58" cy="468.591" r="0.892187" transform="rotate(-4 1401.58 468.591)" fill="white"/>
<circle cx="1349.87" cy="406.919" r="0.892187" transform="rotate(-4 1349.87 406.919)" fill="white"/>
<circle cx="1332.81" cy="636.175" r="0.892187" transform="rotate(-4 1332.81 636.175)" fill="white"/>
<circle cx="1482.18" cy="559.547" r="0.892187" transform="rotate(-4 1482.18 559.547)" fill="white"/>
<circle cx="1335.28" cy="556.404" r="0.892187" transform="rotate(-4 1335.28 556.404)" fill="white"/>
<circle cx="1441.06" cy="598.197" r="0.892187" transform="rotate(-4 1441.06 598.197)" fill="white"/>
<circle cx="945.342" cy="658.797" r="0.892187" transform="rotate(-4 945.342 658.797)" fill="white"/>
<circle cx="1220.42" cy="678.914" r="0.892187" transform="rotate(-4 1220.42 678.914)" fill="white"/>
<circle cx="1111.9" cy="648.939" r="0.892187" transform="rotate(-4 1111.9 648.939)" fill="white"/>
<circle cx="962.427" cy="583.37" r="0.892187" transform="rotate(-4 962.427 583.37)" fill="white"/>
<circle cx="1105.65" cy="534.003" r="0.892187" transform="rotate(-4 1105.65 534.003)" fill="white"/>
<circle cx="1200.93" cy="451.319" r="0.892187" transform="rotate(-4 1200.93 451.319)" fill="white"/>
<circle cx="1225.42" cy="353.91" r="0.892187" transform="rotate(-4 1225.42 353.91)" fill="white"/>
<circle cx="1121.58" cy="211.812" r="0.892187" transform="rotate(-4 1121.58 211.812)" fill="white"/>
<g filter="url(#filter0_f_102_2)">
<path d="M1504.71 837.519C1538.05 829.101 1599.15 804.746 1621.58 785.692C1647.34 765.852 1596.92 740.082 1590.97 736.273C1585.02 732.464 1291.59 570.518 1240.27 545.189C1188.96 519.86 1021.01 560.842 979.873 581.249C946.338 597.884 968.881 611.736 973.084 615.466C977.287 619.197 1221.03 769.403 1308.98 815.858C1375.59 851.039 1439.27 854.043 1504.71 837.519Z" fill="black" fill-opacity="0.2"/>
</g>
<path fill-rule="evenodd" clip-rule="evenodd" d="M1274.4 670.992L1308.29 657.136L1308.3 657.15C1308.51 657.061 1308.72 656.974 1308.93 656.891C1329.11 648.933 1356.42 670.255 1369.93 704.515C1383.44 738.775 1378.04 772.999 1357.86 780.957C1357.62 781.053 1357.38 781.144 1357.14 781.231L1324.37 794.646L1308.4 755.119C1303.97 748.712 1300.04 741.38 1296.86 733.334C1293.94 725.91 1291.9 718.488 1290.7 711.335L1274.4 670.992Z" fill="black"/>
<ellipse rx="39.272" ry="66.6319" transform="matrix(-0.930258 0.366908 0.366911 0.930255 1299.84 732.7)" fill="black"/>
<g filter="url(#filter1_i_102_2)">
<ellipse rx="29.4554" ry="49.9763" transform="matrix(-0.930258 0.366908 0.366911 0.930255 1298.7 732.684)" fill="url(#paint0_linear_102_2)"/>
</g>
<g filter="url(#filter2_di_102_2)">
<path fill-rule="evenodd" clip-rule="evenodd" d="M1300.65 696.678C1305.07 699.375 1309.39 703.463 1313.2 708.623L1303.94 723.105C1302.61 721.408 1301.15 720.04 1299.64 719.084L1300.65 696.678ZM1298.37 747.17C1300.51 748.349 1302.68 748.68 1304.6 747.926C1304.82 747.839 1305.03 747.737 1305.24 747.624L1316.76 769.824C1315.87 770.42 1314.93 770.921 1313.92 771.317C1308.85 773.318 1303.05 772.35 1297.39 769.081L1298.37 747.17ZM1296.55 768.578L1297.53 746.66C1295.88 745.572 1294.28 743.99 1292.87 742.025L1283.8 756.224C1287.65 761.558 1292.04 765.79 1296.55 768.578ZM1298.8 718.594L1299.81 696.182C1294.2 692.993 1288.47 692.065 1283.45 694.046C1282.04 694.6 1280.76 695.356 1279.59 696.293L1291.27 718.814C1291.72 718.449 1292.22 718.155 1292.77 717.941C1294.62 717.209 1296.72 717.499 1298.8 718.594ZM1275.91 741.663C1277.93 746.772 1280.44 751.419 1283.26 755.464L1292.34 741.253C1291.39 739.809 1290.54 738.185 1289.85 736.419C1289.65 735.932 1289.48 735.445 1289.32 734.96L1274.65 738.19C1275.04 739.346 1275.46 740.504 1275.91 741.663ZM1304.49 723.844L1313.74 709.374C1316.71 713.54 1319.35 718.368 1321.46 723.7C1321.86 724.718 1322.23 725.735 1322.58 726.751L1307.74 730.019C1307.67 729.829 1307.59 729.639 1307.52 729.448C1306.7 727.36 1305.66 725.471 1304.49 723.844ZM1274.38 737.365C1271.96 729.867 1270.99 722.507 1271.36 716.003L1288.07 726.681C1287.97 728.97 1288.29 731.521 1289.06 734.132L1274.38 737.365ZM1308.03 730.84C1309 733.776 1309.41 736.665 1309.3 739.224L1325.98 749.887C1326.44 743.134 1325.44 735.423 1322.86 727.574L1308.03 730.84ZM1325.91 750.863L1309.22 740.203C1308.91 743.266 1307.8 745.763 1305.97 747.151L1317.47 769.316C1322.29 765.656 1325.18 759.005 1325.91 750.863ZM1271.42 715.02L1288.14 725.701C1288.4 723.087 1289.24 720.881 1290.61 719.422L1278.91 696.866C1274.59 700.74 1272.03 707.221 1271.42 715.02Z" fill="#4C4C4C"/>
</g>
<path fill-rule="evenodd" clip-rule="evenodd" d="M1274.44 670.292L1308.34 656.437L1308.34 656.452C1308.56 656.36 1308.77 656.271 1308.99 656.185C1329.17 648.227 1356.48 669.549 1369.99 703.809C1383.5 738.069 1378.1 772.294 1357.92 780.252C1357.67 780.35 1357.42 780.444 1357.17 780.534L1324.41 793.946L1308.41 754.347C1304 747.955 1300.09 740.646 1296.92 732.628C1294.01 725.233 1291.97 717.84 1290.78 710.712L1274.44 670.292Z" fill="black"/>
<path d="M1262.94 746.283C1276.44 780.516 1303.74 801.816 1323.92 793.858C1344.1 785.9 1349.51 751.698 1336.01 717.465C1322.5 683.231 1294.43 660.086 1274.26 668.044C1254.08 676.002 1249.44 712.05 1262.94 746.283Z" fill="black"/>
<g filter="url(#filter3_i_102_2)">
<ellipse rx="27.6223" ry="48.167" transform="matrix(-0.926119 0.376999 0.353792 0.935418 1299.04 732.698)" fill="url(#paint1_linear_102_2)"/>
</g>
<g filter="url(#filter4_di_102_2)">
<path fill-rule="evenodd" clip-rule="evenodd" d="M1280.1 740.37C1287.06 758.781 1301.18 770.26 1311.63 766.022L1305.1 749.116C1300.03 751.042 1293.27 745.565 1289.83 736.761L1280.06 740.275C1280.07 740.307 1280.09 740.339 1280.1 740.37ZM1279.2 737.83C1273.5 720.574 1276.35 703.922 1285.94 699.517L1292.47 716.417C1288.01 718.584 1286.59 726.218 1288.99 734.307L1279.2 737.83ZM1307.8 727.539C1304.74 720.452 1299.52 715.769 1295.01 715.823L1288.39 698.698C1298.41 696.532 1310.97 707.263 1317.61 724.01L1307.8 727.539ZM1308.73 729.961L1318.51 726.44C1324.29 742.936 1322.24 759.099 1313.93 764.787L1307.31 747.655C1310.53 744.388 1311.19 737.271 1308.73 729.961Z" fill="#474747"/>
</g>
<path fill-rule="evenodd" clip-rule="evenodd" d="M1030.55 534.638L1060.15 528.414L1060.15 528.427C1060.35 528.383 1060.54 528.342 1060.73 528.303C1078.31 524.834 1097.32 546.207 1103.19 576.043C1109.06 605.878 1099.57 632.877 1082 636.347C1081.78 636.389 1081.57 636.428 1081.35 636.463L1052.72 642.499L1045.61 607.901C1043 602.069 1040.91 595.569 1039.54 588.607C1038.28 582.188 1037.73 575.9 1037.81 569.95L1030.55 534.638Z" fill="black"/>
<ellipse rx="32.4268" ry="55.0332" transform="matrix(-0.981388 0.193734 0.193065 0.980851 1041.99 588.531)" fill="black"/>
<g filter="url(#filter5_i_102_2)">
<ellipse rx="24.3212" ry="41.2768" transform="matrix(-0.981388 0.193734 0.193065 0.980851 1041.09 588.346)" fill="url(#paint2_linear_102_2)"/>
</g>
<g filter="url(#filter6_di_102_2)">
<path fill-rule="evenodd" clip-rule="evenodd" d="M1048.02 559.384C1051.21 562.232 1054.11 566.198 1056.44 570.96L1046.75 581.361C1045.93 579.781 1044.94 578.448 1043.86 577.446L1048.02 559.384ZM1038.64 600.075C1040.2 601.348 1041.92 601.939 1043.58 601.611C1043.78 601.571 1043.97 601.52 1044.16 601.456L1050.21 621.203C1049.41 621.555 1048.56 621.821 1047.69 621.994C1043.27 622.867 1038.7 621.216 1034.58 617.714L1038.64 600.075ZM1033.97 617.179L1038.03 599.536C1036.86 598.41 1035.79 596.89 1034.94 595.089L1025.47 605.263C1027.79 610.161 1030.73 614.246 1033.97 617.179ZM1043.24 576.923L1047.41 558.856C1043.33 555.44 1038.82 553.84 1034.44 554.703C1033.22 554.944 1032.06 555.368 1030.97 555.956L1037.1 575.974C1037.52 575.75 1037.97 575.588 1038.44 575.495C1040.06 575.176 1041.72 575.724 1043.24 576.923ZM1021.23 592.264C1022.11 596.713 1023.45 600.861 1025.14 604.566L1034.63 594.383C1034.07 593.066 1033.62 591.616 1033.31 590.072C1033.23 589.649 1033.16 589.228 1033.1 588.81L1020.72 589.256C1020.86 590.252 1021.03 591.255 1021.23 592.264ZM1047.09 582.044L1056.77 571.651C1058.56 575.476 1059.99 579.79 1060.9 584.433C1061.08 585.319 1061.23 586.201 1061.36 587.078L1048.8 587.531C1048.77 587.365 1048.74 587.199 1048.71 587.033C1048.35 585.22 1047.79 583.536 1047.09 582.044ZM1020.62 588.546C1019.78 582.096 1020.09 575.973 1021.35 570.743L1033.32 581.884C1032.9 583.732 1032.77 585.858 1033.01 588.1L1020.62 588.546ZM1048.91 588.24C1049.27 590.764 1049.17 593.167 1048.7 595.225L1060.68 606.375C1062.05 600.957 1062.39 594.546 1061.46 587.788L1048.91 588.24ZM1060.47 607.157L1048.5 596.01C1047.79 598.452 1046.51 600.317 1044.83 601.178L1050.87 620.895C1055.32 618.638 1058.67 613.664 1060.47 607.157ZM1021.55 569.954L1033.52 581.099C1034.13 579.013 1035.14 577.348 1036.48 576.369L1030.34 556.321C1026.25 558.827 1023.21 563.71 1021.55 569.954Z" fill="#4C4C4C"/>
</g>
<path fill-rule="evenodd" clip-rule="evenodd" d="M1030.44 535.395L1060.04 529.171L1060.04 529.186C1060.22 529.145 1060.4 529.107 1060.58 529.071C1078.16 525.601 1097.17 546.975 1103.04 576.81C1108.91 606.645 1099.43 633.644 1081.85 637.114C1081.61 637.16 1081.38 637.203 1081.14 637.24L1052.61 643.257L1045.53 608.806C1042.88 602.939 1040.77 596.391 1039.39 589.375C1038.12 582.901 1037.57 576.56 1037.67 570.565L1030.44 535.395Z" fill="black"/>
<ellipse rx="32.7871" ry="55.6447" transform="matrix(-0.981388 0.193734 0.193065 0.980851 1041.9 588.647)" fill="black"/>
<g filter="url(#filter7_i_102_2)">
<g filter="url(#filter8_i_102_2)">
<ellipse rx="22.8172" ry="39.8542" transform="matrix(-0.969109 0.247452 0.261748 0.964924 1039.8 592.249)" fill="url(#paint3_linear_102_2)"/>
</g>
<g filter="url(#filter9_di_102_2)">
<path fill-rule="evenodd" clip-rule="evenodd" d="M1022.63 595.682C1026.22 611.549 1036.52 622.864 1045.63 620.991L1042.21 606.39C1037.82 607.165 1032.92 601.798 1031.11 594.24L1022.62 595.663C1022.62 595.669 1022.63 595.675 1022.63 595.682ZM1022.18 593.497C1019.49 578.748 1023.77 565.722 1032.18 563.533L1035.6 578.139C1031.69 579.273 1029.65 585.214 1030.68 592.071L1022.18 593.497ZM1047 589.335C1045.29 583.154 1041.52 578.609 1037.78 578.013L1034.32 563.22C1042.84 562.917 1051.96 573.411 1055.49 587.91L1047 589.335ZM1047.49 591.491L1055.97 590.07C1058.78 604.215 1055.21 616.945 1047.69 620.324L1044.23 605.536C1047.27 603.38 1048.65 597.744 1047.49 591.491Z" fill="url(#paint4_linear_102_2)"/>
</g>
</g>
<g filter="url(#filter10_ii_102_2)">
<path fill-rule="evenodd" clip-rule="evenodd" d="M1468.48 538.283C1469.88 539.214 1471.12 539.869 1472.22 540.217C1484.4 544.063 1585.12 605.178 1606.61 628.881C1627.53 651.948 1625.72 665.09 1624.88 671.191C1624.76 672.072 1624.66 672.807 1624.65 673.403C1624.6 676.375 1624.31 682.349 1623.94 689.948C1623.72 694.424 1623.47 699.464 1623.23 704.788L1622.42 722.874C1622.31 724.223 1622.26 725.602 1622.2 727.01C1621.96 732.988 1621.69 739.488 1617.69 746.442C1612.77 755.015 1589.44 786.211 1481.78 814.671C1445.28 824.319 1404.03 809.916 1377.86 797.7C1366.1 792.719 1357.46 788.04 1353.76 785.97C1353.24 785.681 1352.94 785.17 1352.9 784.582C1352.74 784.487 1352.58 784.4 1352.44 784.32C1352.17 775.135 1350.55 761.94 1347.89 748.739C1344.93 735.042 1340.85 721.465 1336.11 712.483C1324.85 691.151 1300.06 664.349 1279.33 670.451C1255.82 677.377 1256.1 710.655 1256.18 718.602C1256.21 720.939 1256.41 722.506 1256.61 724.054L1256.61 724.054C1256.9 726.309 1257.18 728.524 1256.91 733.021C1256.9 733.189 1256.87 733.348 1256.82 733.495C1256.79 733.831 1256.76 734.185 1256.73 734.556L1256.23 734.271C1255.72 734.643 1255 734.727 1254.38 734.371L1076.17 633.132C1075.7 632.867 1075.38 632.401 1075.32 631.868C1074.86 627.735 1075.09 622.886 1075.35 617.433C1076.02 603.377 1076.88 585.312 1066.51 565.176C1057.03 546.771 1042.58 534.22 1028.79 537.862C1014.99 541.504 1010.63 555.942 1009.52 564.042C1008.44 571.997 1008.54 579.348 1008.6 583.61L1008.6 583.615C1008.62 585.328 1008.64 586.542 1008.57 587.095C1008.32 589.024 989.492 571.341 988.521 564.883C985.568 545.227 985.592 526.948 988.494 507.263C988.988 503.912 990.661 495.259 991.717 492.392C991.806 492.152 991.853 491.904 991.847 491.648C991.673 484.838 993.334 474.62 995.426 470.402C995.61 470.031 995.79 469.641 995.979 469.23C998.191 464.442 1001.64 456.964 1026.1 447.36C1060.82 433.722 1155.02 404.125 1158.64 403.498C1167.2 402.014 1178.02 403.305 1186.77 404.35C1191.91 404.963 1196.34 405.491 1199.19 405.325C1240.3 402.925 1287.49 410.696 1348.68 444.992C1356.9 448.915 1365 453.332 1372.81 458.311C1392.31 470.729 1408.62 483.716 1422.14 495.604C1438 508.845 1450.15 520.657 1458.87 529.133C1462.74 532.896 1465.94 536.001 1468.48 538.283Z" fill="url(#paint5_linear_102_2)"/>
</g>
<g filter="url(#filter11_ddi_102_2)">
<path d="M1300.96 601.259C1278.44 590.753 1267.03 558.895 1233.47 520.796C1233.07 520.334 1233.25 519.599 1233.83 519.396L1378.82 468.802C1378.96 468.756 1379.09 468.741 1379.22 468.773C1381 469.191 1395.05 473.511 1434.99 511.831C1454.43 530.485 1458.27 535.288 1468.41 542.785C1470.02 543.971 1469.62 546.404 1463.32 551.122C1443.23 566.162 1334 616.665 1300.96 601.259Z" fill="url(#paint6_linear_102_2)"/>
</g>
<g filter="url(#filter12_di_102_2)">
<path d="M1145.82 474.523C1116.32 463.787 1112.06 464.469 1089.08 463.433C1074.85 462.791 1051.18 460.933 1048.43 467.2C1045.68 473.468 1072.1 494.733 1083.13 501.48C1088.52 504.778 1274.9 608.623 1269.34 597.092C1262.5 582.886 1229.9 541.719 1218.89 525.012C1200.53 497.158 1175.32 485.258 1145.82 474.523Z" fill="url(#paint7_linear_102_2)"/>
</g>
<g filter="url(#filter13_di_102_2)">
<path d="M1078.86 452.687L1206.68 407.385C1206.68 407.385 1203.83 408.246 1188.43 407.326C1183.06 407.005 1050.37 454.512 1049.38 455.303L1078.86 452.687Z" fill="url(#paint8_linear_102_2)"/>
</g>
<g filter="url(#filter14_f_102_2)">
<path d="M1355.55 672.575C1308.35 648.064 1282.53 618.802 1254.64 591.862C1339.97 621.323 1518.48 685.422 1515.47 688.934C1511.72 693.325 1498.48 698.136 1455.15 699.092C1412.49 700.033 1360.96 675.381 1355.55 672.575Z" fill="url(#paint9_linear_102_2)" fill-opacity="0.21"/>
</g>
<g filter="url(#filter15_di_102_2)">
<path d="M1187.08 597.361C1187.1 597.03 1186.92 596.72 1186.63 596.563L1168.87 586.942C1168.31 586.638 1167.63 587.026 1167.6 587.662L1167.39 592.21C1167.38 592.541 1167.55 592.852 1167.84 593.009L1185.6 602.594C1186.17 602.897 1186.85 602.509 1186.88 601.873L1187.08 597.361Z" fill="#323232"/>
</g>
<g filter="url(#filter16_di_102_2)">
<path d="M1096.65 552.627C1096.67 552.296 1096.49 551.986 1096.2 551.829L1078.44 542.208C1077.88 541.905 1077.2 542.292 1077.17 542.929L1076.96 547.477C1076.95 547.808 1077.12 548.118 1077.42 548.275L1095.18 557.86C1095.74 558.163 1096.42 557.775 1096.45 557.139L1096.65 552.627Z" fill="#323232"/>
</g>
<path d="M1395.81 584.483L1289.52 499.736C1276.79 502.565 1247.57 514.053 1242.02 515.851C1234.84 518.179 1233.59 519.601 1233.59 519.601C1233.5 521.729 1234.54 522.709 1237.83 526.189C1242.53 531.177 1244.52 533.465 1256.01 549.529C1272.55 572.662 1284.97 594.052 1297.56 599.618C1307.57 604.046 1323.3 608.233 1346.25 601.813C1366.77 596.076 1379.55 589.123 1395.81 584.483Z" fill="#C4C4C4" fill-opacity="0.2"/>
<g opacity="0.17" filter="url(#filter17_f_102_2)">
<path d="M1587.81 656.487C1556.81 678.75 1488.68 709.501 1458.71 713.308" stroke="url(#paint10_linear_102_2)" stroke-width="28.4992" stroke-linecap="round" stroke-linejoin="round"/>
</g>
<g filter="url(#filter18_dii_102_2)">
<path d="M1610.26 666.135C1616.42 658.572 1615.04 652.248 1614.64 642.332C1614.63 642.198 1614.61 642.048 1614.57 641.918C1612.2 633.634 1622.56 650.309 1623.21 661.527C1623.42 665.211 1623.1 667.057 1622.6 670.425C1622.38 671.966 1618.75 681.274 1619.14 683.336C1619.52 685.398 1617.84 699.415 1617.82 701.544C1617.8 703.673 1608.18 719.087 1584.1 733.286C1564.1 745.081 1535.82 752.139 1532.94 752.421C1530.07 752.702 1527.69 743.01 1525.64 742.388C1520.27 740.76 1503.95 745.914 1497.9 747.146C1490.82 748.583 1474.33 751.887 1456.6 748.8C1434.68 744.981 1431.41 742.33 1411.64 730.41C1397.74 722.036 1388.57 706.141 1385.96 698.478C1385.57 697.328 1386.65 696.375 1387.79 696.796C1400.47 701.473 1430.58 714.367 1465.29 719.504C1513.74 726.673 1553.22 705.351 1558.87 702.285C1582.65 689.397 1595.04 684.793 1610.26 666.135Z" fill="#211F1F"/>
</g>
<mask id="mask0_102_2" style="mask-type:alpha" maskUnits="userSpaceOnUse" x="1385" y="637" width="241" height="116">
<path d="M1610.29 666.042C1617.23 657.521 1615.44 646.533 1613.22 638.974C1612.72 637.291 1614.49 636.339 1615.48 637.789C1622.62 648.262 1625.1 657.484 1625.59 661.971C1625.8 665.655 1625.61 667.979 1625.11 671.348C1624.89 672.889 1618.8 681.176 1619.18 683.237C1619.56 685.299 1617.9 699.317 1617.87 701.446C1617.85 703.575 1608.24 718.995 1584.17 733.21C1564.18 745.019 1535.91 752.096 1533.03 752.379C1530.15 752.662 1527.78 742.973 1525.72 742.352C1520.35 740.727 1504.04 745.892 1497.98 747.127C1490.91 748.569 1474.42 751.885 1456.69 748.809C1434.76 745.005 1431.5 742.356 1411.71 730.449C1397.81 722.084 1388.63 706.195 1386.02 698.533C1385.63 697.383 1386.7 696.43 1387.84 696.85C1400.53 701.519 1430.64 714.393 1465.36 719.507C1513.81 726.644 1553.28 705.295 1558.93 702.226C1582.7 689.322 1595.09 684.711 1610.29 666.042Z" fill="#999999"/>
</mask>
<g mask="url(#mask0_102_2)">
<g filter="url(#filter19_d_102_2)">
<path d="M1420.23 704.906L1487.3 708.94C1487.34 709.067 1487.39 709.224 1487.44 709.408C1487.61 709.962 1487.81 710.759 1487.97 711.726C1488.27 713.663 1488.38 716.251 1487.59 718.903C1486.8 721.541 1485.12 724.271 1481.82 726.511C1478.51 728.759 1473.53 730.537 1466.1 731.191C1461.66 731.582 1455.59 731.285 1449.4 729.824C1443.22 728.362 1436.97 725.747 1432.13 721.538C1429.5 719.243 1426.39 714.86 1423.91 710.99C1422.68 709.066 1421.61 707.289 1420.86 705.992C1420.61 705.577 1420.4 705.211 1420.23 704.906Z" stroke="white" stroke-opacity="0.5" stroke-width="1.285"/>
</g>
<g filter="url(#filter20_d_102_2)">
<path d="M1598.95 666.116L1614.72 644.479C1614.89 644.758 1615.09 645.123 1615.32 645.565C1615.89 646.688 1616.59 648.3 1617.12 650.254C1618.18 654.16 1618.51 659.404 1615.68 664.837C1614.84 666.436 1613.67 667.566 1612.39 668.014C1611.15 668.45 1609.74 668.267 1608.3 667.081C1607.6 666.503 1606.55 666.203 1605.47 666.045C1604.36 665.884 1603.13 665.859 1601.99 665.894C1600.84 665.929 1599.77 666.025 1598.99 666.112C1598.98 666.113 1598.97 666.115 1598.95 666.116Z" stroke="white" stroke-opacity="0.5" stroke-width="1.07083"/>
</g>
</g>
<g filter="url(#filter21_f_102_2)">
<path d="M1261.42 664.54L1076.85 567.202C1087.19 589.063 1084.04 612.933 1083.14 622.921L1243.95 714.303C1245.24 685.834 1254.54 667.016 1261.42 664.54Z" fill="url(#paint11_linear_102_2)"/>
</g>
<circle cx="1067.59" cy="505.605" r="0.892187" fill="white"/>
</g>
<defs>
<filter id="filter0_f_102_2" x="949.737" y="525.134" width="691.158" height="334.109" filterUnits="userSpaceOnUse" color-interpolation-filters="sRGB">
<feFlood flood-opacity="0" result="BackgroundImageFix"/>
<feBlend mode="normal" in="SourceGraphic" in2="BackgroundImageFix" result="shape"/>
<feGaussianBlur stdDeviation="6.01963" result="effect1_foregroundBlur_102_2"/>
</filter>
<filter id="filter1_i_102_2" x="1265.73" y="684.943" width="65.9478" height="95.482" filterUnits="userSpaceOnUse" color-interpolation-filters="sRGB">
<feFlood flood-opacity="0" result="BackgroundImageFix"/>
<feBlend mode="normal" in="SourceGraphic" in2="BackgroundImageFix" result="shape"/>
<feColorMatrix in="SourceAlpha" type="matrix" values="0 0 0 0 0 0 0 0 0 0 0 0 0 0 0 0 0 0 127 0" result="hardAlpha"/>
<feMorphology radius="0.431806" operator="erode" in="SourceAlpha" result="effect1_innerShadow_102_2"/>
<feOffset/>
<feGaussianBlur stdDeviation="0.215903"/>
<feComposite in2="hardAlpha" operator="arithmetic" k2="-1" k3="1"/>
<feColorMatrix type="matrix" values="0 0 0 0 0 0 0 0 0 0 0 0 0 0 0 0 0 0 0.25 0"/>
<feBlend mode="normal" in2="shape" result="effect1_innerShadow_102_2"/>
</filter>
<filter id="filter2_di_102_2" x="1269.99" y="692.921" width="56.3592" height="80.2982" filterUnits="userSpaceOnUse" color-interpolation-filters="sRGB">
<feFlood flood-opacity="0" result="BackgroundImageFix"/>
<feColorMatrix in="SourceAlpha" type="matrix" values="0 0 0 0 0 0 0 0 0 0 0 0 0 0 0 0 0 0 127 0" result="hardAlpha"/>
<feOffset dy="0.172722"/>
<feGaussianBlur stdDeviation="0.129542"/>
<feColorMatrix type="matrix" values="0 0 0 0 1 0 0 0 0 1 0 0 0 0 1 0 0 0 0.41 0"/>
<feBlend mode="normal" in2="BackgroundImageFix" result="effect1_dropShadow_102_2"/>
<feBlend mode="normal" in="SourceGraphic" in2="effect1_dropShadow_102_2" result="shape"/>
<feColorMatrix in="SourceAlpha" type="matrix" values="0 0 0 0 0 0 0 0 0 0 0 0 0 0 0 0 0 0 127 0" result="hardAlpha"/>
<feOffset dx="-1.29542" dy="0.863611"/>
<feGaussianBlur stdDeviation="0.647708"/>
<feComposite in2="hardAlpha" operator="arithmetic" k2="-1" k3="1"/>
<feColorMatrix type="matrix" values="0 0 0 0 0 0 0 0 0 0 0 0 0 0 0 0 0 0 0.25 0"/>
<feBlend mode="normal" in2="shape" result="effect2_innerShadow_102_2"/>
</filter>
<filter id="filter3_i_102_2" x="1268.3" y="686.444" width="61.4824" height="92.5085" filterUnits="userSpaceOnUse" color-interpolation-filters="sRGB">
<feFlood flood-opacity="0" result="BackgroundImageFix"/>
<feBlend mode="normal" in="SourceGraphic" in2="BackgroundImageFix" result="shape"/>
<feColorMatrix in="SourceAlpha" type="matrix" values="0 0 0 0 0 0 0 0 0 0 0 0 0 0 0 0 0 0 127 0" result="hardAlpha"/>
<feMorphology radius="0.317042" operator="erode" in="SourceAlpha" result="effect1_innerShadow_102_2"/>
<feOffset/>
<feGaussianBlur stdDeviation="0.158521"/>
<feComposite in2="hardAlpha" operator="arithmetic" k2="-1" k3="1"/>
<feColorMatrix type="matrix" values="0 0 0 0 0 0 0 0 0 0 0 0 0 0 0 0 0 0 0.25 0"/>
<feBlend mode="normal" in2="shape" result="effect1_innerShadow_102_2"/>
</filter>
<filter id="filter4_di_102_2" x="1274.98" y="698.334" width="47.0677" height="69.4311" filterUnits="userSpaceOnUse" color-interpolation-filters="sRGB">
<feFlood flood-opacity="0" result="BackgroundImageFix"/>
<feColorMatrix in="SourceAlpha" type="matrix" values="0 0 0 0 0 0 0 0 0 0 0 0 0 0 0 0 0 0 127 0" result="hardAlpha"/>
<feOffset dy="0.172722"/>
<feGaussianBlur stdDeviation="0.129542"/>
<feColorMatrix type="matrix" values="0 0 0 0 1 0 0 0 0 1 0 0 0 0 1 0 0 0 0.41 0"/>
<feBlend mode="normal" in2="BackgroundImageFix" result="effect1_dropShadow_102_2"/>
<feBlend mode="normal" in="SourceGraphic" in2="effect1_dropShadow_102_2" result="shape"/>
<feColorMatrix in="SourceAlpha" type="matrix" values="0 0 0 0 0 0 0 0 0 0 0 0 0 0 0 0 0 0 127 0" result="hardAlpha"/>
<feOffset dx="-1.29542" dy="0.863611"/>
<feGaussianBlur stdDeviation="0.647708"/>
<feComposite in2="hardAlpha" operator="arithmetic" k2="-1" k3="1"/>
<feColorMatrix type="matrix" values="0 0 0 0 0 0 0 0 0 0 0 0 0 0 0 0 0 0 0.25 0"/>
<feBlend mode="normal" in2="shape" result="effect2_innerShadow_102_2"/>
</filter>
<filter id="filter5_i_102_2" x="1015.92" y="547.583" width="50.3408" height="81.5271" filterUnits="userSpaceOnUse" color-interpolation-filters="sRGB">
<feFlood flood-opacity="0" result="BackgroundImageFix"/>
<feBlend mode="normal" in="SourceGraphic" in2="BackgroundImageFix" result="shape"/>
<feColorMatrix in="SourceAlpha" type="matrix" values="0 0 0 0 0 0 0 0 0 0 0 0 0 0 0 0 0 0 127 0" result="hardAlpha"/>
<feMorphology radius="0.356591" operator="erode" in="SourceAlpha" result="effect1_innerShadow_102_2"/>
<feOffset/>
<feGaussianBlur stdDeviation="0.178295"/>
<feComposite in2="hardAlpha" operator="arithmetic" k2="-1" k3="1"/>
<feColorMatrix type="matrix" values="0 0 0 0 0 0 0 0 0 0 0 0 0 0 0 0 0 0 0.25 0"/>
<feBlend mode="normal" in2="shape" result="effect1_innerShadow_102_2"/>
</filter>
<filter id="filter6_di_102_2" x="1019.08" y="554.401" width="43.1187" height="68.5358" filterUnits="userSpaceOnUse" color-interpolation-filters="sRGB">
<feFlood flood-opacity="0" result="BackgroundImageFix"/>
<feColorMatrix in="SourceAlpha" type="matrix" values="0 0 0 0 0 0 0 0 0 0 0 0 0 0 0 0 0 0 127 0" result="hardAlpha"/>
<feOffset dy="0.142636"/>
<feGaussianBlur stdDeviation="0.106977"/>
<feColorMatrix type="matrix" values="0 0 0 0 1 0 0 0 0 1 0 0 0 0 1 0 0 0 0.41 0"/>
<feBlend mode="normal" in2="BackgroundImageFix" result="effect1_dropShadow_102_2"/>
<feBlend mode="normal" in="SourceGraphic" in2="effect1_dropShadow_102_2" result="shape"/>
<feColorMatrix in="SourceAlpha" type="matrix" values="0 0 0 0 0 0 0 0 0 0 0 0 0 0 0 0 0 0 127 0" result="hardAlpha"/>
<feOffset dx="-1.06977" dy="0.713181"/>
<feGaussianBlur stdDeviation="0.534886"/>
<feComposite in2="hardAlpha" operator="arithmetic" k2="-1" k3="1"/>
<feColorMatrix type="matrix" values="0 0 0 0 0 0 0 0 0 0 0 0 0 0 0 0 0 0 0.25 0"/>
<feBlend mode="normal" in2="shape" result="effect2_innerShadow_102_2"/>
</filter>
<filter id="filter7_i_102_2" x="1015.34" y="553.376" width="48.9102" height="77.7473" filterUnits="userSpaceOnUse" color-interpolation-filters="sRGB">
<feFlood flood-opacity="0" result="BackgroundImageFix"/>
<feBlend mode="normal" in="SourceGraphic" in2="BackgroundImageFix" result="shape"/>
<feColorMatrix in="SourceAlpha" type="matrix" values="0 0 0 0 0 0 0 0 0 0 0 0 0 0 0 0 0 0 127 0" result="hardAlpha"/>
<feMorphology radius="0.317042" operator="erode" in="SourceAlpha" result="effect1_innerShadow_102_2"/>
<feOffset/>
<feGaussianBlur stdDeviation="0.158521"/>
<feComposite in2="hardAlpha" operator="arithmetic" k2="-1" k3="1"/>
<feColorMatrix type="matrix" values="0 0 0 0 0 0 0 0 0 0 0 0 0 0 0 0 0 0 0.25 0"/>
<feBlend mode="normal" in2="shape" result="effect1_innerShadow_102_2"/>
</filter>
<filter id="filter8_i_102_2" x="1015.34" y="553.376" width="48.9102" height="77.7473" filterUnits="userSpaceOnUse" color-interpolation-filters="sRGB">
<feFlood flood-opacity="0" result="BackgroundImageFix"/>
<feBlend mode="normal" in="SourceGraphic" in2="BackgroundImageFix" result="shape"/>
<feColorMatrix in="SourceAlpha" type="matrix" values="0 0 0 0 0 0 0 0 0 0 0 0 0 0 0 0 0 0 127 0" result="hardAlpha"/>
<feMorphology radius="0.320927" operator="erode" in="SourceAlpha" result="effect1_innerShadow_102_2"/>
<feOffset/>
<feGaussianBlur stdDeviation="0.160463"/>
<feComposite in2="hardAlpha" operator="arithmetic" k2="-1" k3="1"/>
<feColorMatrix type="matrix" values="0 0 0 0 0 0 0 0 0 0 0 0 0 0 0 0 0 0 0.25 0"/>
<feBlend mode="normal" in2="shape" result="effect1_innerShadow_102_2"/>
</filter>
<filter id="filter9_di_102_2" x="1020.09" y="563.127" width="37.098" height="58.9298" filterUnits="userSpaceOnUse" color-interpolation-filters="sRGB">
<feFlood flood-opacity="0" result="BackgroundImageFix"/>
<feColorMatrix in="SourceAlpha" type="matrix" values="0 0 0 0 0 0 0 0 0 0 0 0 0 0 0 0 0 0 127 0" result="hardAlpha"/>
<feOffset dy="0.172722"/>
<feGaussianBlur stdDeviation="0.129542"/>
<feColorMatrix type="matrix" values="0 0 0 0 1 0 0 0 0 1 0 0 0 0 1 0 0 0 0.41 0"/>
<feBlend mode="normal" in2="BackgroundImageFix" result="effect1_dropShadow_102_2"/>
<feBlend mode="normal" in="SourceGraphic" in2="effect1_dropShadow_102_2" result="shape"/>
<feColorMatrix in="SourceAlpha" type="matrix" values="0 0 0 0 0 0 0 0 0 0 0 0 0 0 0 0 0 0 127 0" result="hardAlpha"/>
<feOffset dx="-1.29542" dy="0.863611"/>
<feGaussianBlur stdDeviation="0.647708"/>
<feComposite in2="hardAlpha" operator="arithmetic" k2="-1" k3="1"/>
<feColorMatrix type="matrix" values="0 0 0 0 0 0 0 0 0 0 0 0 0 0 0 0 0 0 0.25 0"/>
<feBlend mode="normal" in2="shape" result="effect2_innerShadow_102_2"/>
</filter>
<filter id="filter10_ii_102_2" x="986.312" y="399.372" width="641.604" height="418.459" filterUnits="userSpaceOnUse" color-interpolation-filters="sRGB">
<feFlood flood-opacity="0" result="BackgroundImageFix"/>
<feBlend mode="normal" in="SourceGraphic" in2="BackgroundImageFix" result="shape"/>
<feColorMatrix in="SourceAlpha" type="matrix" values="0 0 0 0 0 0 0 0 0 0 0 0 0 0 0 0 0 0 127 0" result="hardAlpha"/>
<feOffset dx="2.59083" dy="-3.45444"/>
<feGaussianBlur stdDeviation="10.3633"/>
<feComposite in2="hardAlpha" operator="arithmetic" k2="-1" k3="1"/>
<feColorMatrix type="matrix" values="0 0 0 0 0 0 0 0 0 0 0 0 0 0 0 0 0 0 0.07 0"/>
<feBlend mode="normal" in2="shape" result="effect1_innerShadow_102_2"/>
<feColorMatrix in="SourceAlpha" type="matrix" values="0 0 0 0 0 0 0 0 0 0 0 0 0 0 0 0 0 0 127 0" result="hardAlpha"/>
<feOffset dy="-0.431805"/>
<feGaussianBlur stdDeviation="0.863611"/>
<feComposite in2="hardAlpha" operator="arithmetic" k2="-1" k3="1"/>
<feColorMatrix type="matrix" values="0 0 0 0 0 0 0 0 0 0 0 0 0 0 0 0 0 0 0.25 0"/>
<feBlend mode="normal" in2="effect1_innerShadow_102_2" result="effect2_innerShadow_102_2"/>
</filter>
<filter id="filter11_ddi_102_2" x="1231.53" y="467.461" width="238.548" height="137.984" filterUnits="userSpaceOnUse" color-interpolation-filters="sRGB">
<feFlood flood-opacity="0" result="BackgroundImageFix"/>
<feColorMatrix in="SourceAlpha" type="matrix" values="0 0 0 0 0 0 0 0 0 0 0 0 0 0 0 0 0 0 127 0" result="hardAlpha"/>
<feOffset dx="-0.863611" dy="0.431805"/>
<feGaussianBlur stdDeviation="0.431805"/>
<feColorMatrix type="matrix" values="0 0 0 0 1 0 0 0 0 1 0 0 0 0 1 0 0 0 0.28 0"/>
<feBlend mode="normal" in2="BackgroundImageFix" result="effect1_dropShadow_102_2"/>
<feColorMatrix in="SourceAlpha" type="matrix" values="0 0 0 0 0 0 0 0 0 0 0 0 0 0 0 0 0 0 127 0" result="hardAlpha"/>
<feOffset dy="-0.431805"/>
<feGaussianBlur stdDeviation="0.431805"/>
<feColorMatrix type="matrix" values="0 0 0 0 1 0 0 0 0 1 0 0 0 0 1 0 0 0 0.56 0"/>
<feBlend mode="normal" in2="effect1_dropShadow_102_2" result="effect2_dropShadow_102_2"/>
<feBlend mode="normal" in="SourceGraphic" in2="effect2_dropShadow_102_2" result="shape"/>
<feColorMatrix in="SourceAlpha" type="matrix" values="0 0 0 0 0 0 0 0 0 0 0 0 0 0 0 0 0 0 127 0" result="hardAlpha"/>
<feOffset dx="-0.431805" dy="1.29542"/>
<feGaussianBlur stdDeviation="0.647708"/>
<feComposite in2="hardAlpha" operator="arithmetic" k2="-1" k3="1"/>
<feColorMatrix type="matrix" values="0 0 0 0 0 0 0 0 0 0 0 0 0 0 0 0 0 0 0.75 0"/>
<feBlend mode="normal" in2="shape" result="effect3_innerShadow_102_2"/>
</filter>
<filter id="filter12_di_102_2" x="1046.51" y="462.673" width="223.406" height="137.04" filterUnits="userSpaceOnUse" color-interpolation-filters="sRGB">
<feFlood flood-opacity="0" result="BackgroundImageFix"/>
<feColorMatrix in="SourceAlpha" type="matrix" values="0 0 0 0 0 0 0 0 0 0 0 0 0 0 0 0 0 0 127 0" result="hardAlpha"/>
<feOffset dy="0.446543"/>
<feGaussianBlur stdDeviation="0.223272"/>
<feColorMatrix type="matrix" values="0 0 0 0 0.925374 0 0 0 0 0.925374 0 0 0 0 0.925374 0 0 0 0.37 0"/>
<feBlend mode="normal" in2="BackgroundImageFix" result="effect1_dropShadow_102_2"/>
<feBlend mode="normal" in="SourceGraphic" in2="effect1_dropShadow_102_2" result="shape"/>
<feColorMatrix in="SourceAlpha" type="matrix" values="0 0 0 0 0 0 0 0 0 0 0 0 0 0 0 0 0 0 127 0" result="hardAlpha"/>
<feOffset dx="-1.72722" dy="2.15903"/>
<feGaussianBlur stdDeviation="0.863611"/>
<feComposite in2="hardAlpha" operator="arithmetic" k2="-1" k3="1"/>
<feColorMatrix type="matrix" values="0 0 0 0 0 0 0 0 0 0 0 0 0 0 0 0 0 0 0.8 0"/>
<feBlend mode="normal" in2="shape" result="effect2_innerShadow_102_2"/>
</filter>
<filter id="filter13_di_102_2" x="1047.66" y="407.324" width="159.473" height="49.7064" filterUnits="userSpaceOnUse" color-interpolation-filters="sRGB">
<feFlood flood-opacity="0" result="BackgroundImageFix"/>
<feColorMatrix in="SourceAlpha" type="matrix" values="0 0 0 0 0 0 0 0 0 0 0 0 0 0 0 0 0 0 127 0" result="hardAlpha"/>
<feOffset dy="0.446543"/>
<feGaussianBlur stdDeviation="0.223272"/>
<feColorMatrix type="matrix" values="0 0 0 0 0.925374 0 0 0 0 0.925374 0 0 0 0 0.925374 0 0 0 0.37 0"/>
<feBlend mode="normal" in2="BackgroundImageFix" result="effect1_dropShadow_102_2"/>
<feBlend mode="normal" in="SourceGraphic" in2="effect1_dropShadow_102_2" result="shape"/>
<feColorMatrix in="SourceAlpha" type="matrix" values="0 0 0 0 0 0 0 0 0 0 0 0 0 0 0 0 0 0 127 0" result="hardAlpha"/>
<feOffset dx="-1.72722" dy="2.15903"/>
<feGaussianBlur stdDeviation="0.863611"/>
<feComposite in2="hardAlpha" operator="arithmetic" k2="-1" k3="1"/>
<feColorMatrix type="matrix" values="0 0 0 0 0 0 0 0 0 0 0 0 0 0 0 0 0 0 0.8 0"/>
<feBlend mode="normal" in2="shape" result="effect2_innerShadow_102_2"/>
</filter>
<filter id="filter14_f_102_2" x="1242.55" y="579.771" width="285.055" height="131.437" filterUnits="userSpaceOnUse" color-interpolation-filters="sRGB">
<feFlood flood-opacity="0" result="BackgroundImageFix"/>
<feBlend mode="normal" in="SourceGraphic" in2="BackgroundImageFix" result="shape"/>
<feGaussianBlur stdDeviation="6.04528" result="effect1_foregroundBlur_102_2"/>
</filter>
<filter id="filter15_di_102_2" x="1167.18" y="586.408" width="20.1197" height="17.3614" filterUnits="userSpaceOnUse" color-interpolation-filters="sRGB">
<feFlood flood-opacity="0" result="BackgroundImageFix"/>
<feColorMatrix in="SourceAlpha" type="matrix" values="0 0 0 0 0 0 0 0 0 0 0 0 0 0 0 0 0 0 127 0" result="hardAlpha"/>
<feOffset dy="-0.214166"/>
<feGaussianBlur stdDeviation="0.107083"/>
<feColorMatrix type="matrix" values="0 0 0 0 0.78755 0 0 0 0 0.78755 0 0 0 0 0.78755 0 0 0 0.19 0"/>
<feBlend mode="normal" in2="BackgroundImageFix" result="effect1_dropShadow_102_2"/>
<feBlend mode="normal" in="SourceGraphic" in2="effect1_dropShadow_102_2" result="shape"/>
<feColorMatrix in="SourceAlpha" type="matrix" values="0 0 0 0 0 0 0 0 0 0 0 0 0 0 0 0 0 0 127 0" result="hardAlpha"/>
<feOffset dy="1.07083"/>
<feGaussianBlur stdDeviation="0.535415"/>
<feComposite in2="hardAlpha" operator="arithmetic" k2="-1" k3="1"/>
<feColorMatrix type="matrix" values="0 0 0 0 0 0 0 0 0 0 0 0 0 0 0 0 0 0 0.74 0"/>
<feBlend mode="normal" in2="shape" result="effect2_innerShadow_102_2"/>
</filter>
<filter id="filter16_di_102_2" x="1076.75" y="541.675" width="20.1197" height="17.3614" filterUnits="userSpaceOnUse" color-interpolation-filters="sRGB">
<feFlood flood-opacity="0" result="BackgroundImageFix"/>
<feColorMatrix in="SourceAlpha" type="matrix" values="0 0 0 0 0 0 0 0 0 0 0 0 0 0 0 0 0 0 127 0" result="hardAlpha"/>
<feOffset dy="-0.214166"/>
<feGaussianBlur stdDeviation="0.107083"/>
<feColorMatrix type="matrix" values="0 0 0 0 0.78755 0 0 0 0 0.78755 0 0 0 0 0.78755 0 0 0 0.19 0"/>
<feBlend mode="normal" in2="BackgroundImageFix" result="effect1_dropShadow_102_2"/>
<feBlend mode="normal" in="SourceGraphic" in2="effect1_dropShadow_102_2" result="shape"/>
<feColorMatrix in="SourceAlpha" type="matrix" values="0 0 0 0 0 0 0 0 0 0 0 0 0 0 0 0 0 0 127 0" result="hardAlpha"/>
<feOffset dy="1.07083"/>
<feGaussianBlur stdDeviation="0.535415"/>
<feComposite in2="hardAlpha" operator="arithmetic" k2="-1" k3="1"/>
<feColorMatrix type="matrix" values="0 0 0 0 0 0 0 0 0 0 0 0 0 0 0 0 0 0 0.74 0"/>
<feBlend mode="normal" in2="shape" result="effect2_innerShadow_102_2"/>
</filter>
<filter id="filter17_f_102_2" x="1440.14" y="637.918" width="166.232" height="93.959" filterUnits="userSpaceOnUse" color-interpolation-filters="sRGB">
<feFlood flood-opacity="0" result="BackgroundImageFix"/>
<feBlend mode="normal" in="SourceGraphic" in2="BackgroundImageFix" result="shape"/>
<feGaussianBlur stdDeviation="2.15903" result="effect1_foregroundBlur_102_2"/>
</filter>
<filter id="filter18_dii_102_2" x="1383.46" y="637.672" width="242.238" height="117.58" filterUnits="userSpaceOnUse" color-interpolation-filters="sRGB">
<feFlood flood-opacity="0" result="BackgroundImageFix"/>
<feColorMatrix in="SourceAlpha" type="matrix" values="0 0 0 0 0 0 0 0 0 0 0 0 0 0 0 0 0 0 127 0" result="hardAlpha"/>
<feOffset dy="0.403698"/>
<feGaussianBlur stdDeviation="1.21109"/>
<feColorMatrix type="matrix" values="0 0 0 0 0 0 0 0 0 0 0 0 0 0 0 0 0 0 0.85 0"/>
<feBlend mode="normal" in2="BackgroundImageFix" result="effect1_dropShadow_102_2"/>
<feBlend mode="normal" in="SourceGraphic" in2="effect1_dropShadow_102_2" result="shape"/>
<feColorMatrix in="SourceAlpha" type="matrix" values="0 0 0 0 0 0 0 0 0 0 0 0 0 0 0 0 0 0 127 0" result="hardAlpha"/>
<feOffset dy="0.403698"/>
<feGaussianBlur stdDeviation="0.403698"/>
<feComposite in2="hardAlpha" operator="arithmetic" k2="-1" k3="1"/>
<feColorMatrix type="matrix" values="0 0 0 0 0 0 0 0 0 0 0 0 0 0 0 0 0 0 0.25 0"/>
<feBlend mode="normal" in2="shape" result="effect2_innerShadow_102_2"/>
<feColorMatrix in="SourceAlpha" type="matrix" values="0 0 0 0 0 0 0 0 0 0 0 0 0 0 0 0 0 0 127 0" result="hardAlpha"/>
<feOffset dy="-0.403698"/>
<feGaussianBlur stdDeviation="0.403698"/>
<feComposite in2="hardAlpha" operator="arithmetic" k2="-1" k3="1"/>
<feColorMatrix type="matrix" values="0 0 0 0 0 0 0 0 0 0 0 0 0 0 0 0 0 0 0.25 0"/>
<feBlend mode="normal" in2="effect2_innerShadow_102_2" result="effect3_innerShadow_102_2"/>
</filter>
<filter id="filter19_d_102_2" x="1418.45" y="704.194" width="71.8858" height="29.938" filterUnits="userSpaceOnUse" color-interpolation-filters="sRGB">
<feFlood flood-opacity="0" result="BackgroundImageFix"/>
<feColorMatrix in="SourceAlpha" type="matrix" values="0 0 0 0 0 0 0 0 0 0 0 0 0 0 0 0 0 0 127 0" result="hardAlpha"/>
<feOffset dx="0.428332" dy="1.07083"/>
<feGaussianBlur stdDeviation="0.535415"/>
<feColorMatrix type="matrix" values="0 0 0 0 1 0 0 0 0 1 0 0 0 0 1 0 0 0 0.24 0"/>
<feBlend mode="normal" in2="BackgroundImageFix" result="effect1_dropShadow_102_2"/>
<feBlend mode="normal" in="SourceGraphic" in2="effect1_dropShadow_102_2" result="shape"/>
</filter>
<filter id="filter20_d_102_2" x="1597.79" y="643.523" width="21.7296" height="26.3336" filterUnits="userSpaceOnUse" color-interpolation-filters="sRGB">
<feFlood flood-opacity="0" result="BackgroundImageFix"/>
<feColorMatrix in="SourceAlpha" type="matrix" values="0 0 0 0 0 0 0 0 0 0 0 0 0 0 0 0 0 0 127 0" result="hardAlpha"/>
<feOffset dx="0.642498" dy="0.642498"/>
<feGaussianBlur stdDeviation="0.22469"/>
<feColorMatrix type="matrix" values="0 0 0 0 1 0 0 0 0 1 0 0 0 0 1 0 0 0 0.24 0"/>
<feBlend mode="normal" in2="BackgroundImageFix" result="effect1_dropShadow_102_2"/>
<feBlend mode="normal" in="SourceGraphic" in2="effect1_dropShadow_102_2" result="shape"/>
</filter>
<filter id="filter21_f_102_2" x="1074.71" y="565.061" width="188.854" height="151.384" filterUnits="userSpaceOnUse" color-interpolation-filters="sRGB">
<feFlood flood-opacity="0" result="BackgroundImageFix"/>
<feBlend mode="normal" in="SourceGraphic" in2="BackgroundImageFix" result="shape"/>
<feGaussianBlur stdDeviation="1.07083" result="effect1_foregroundBlur_102_2"/>
</filter>
<linearGradient id="paint0_linear_102_2" x1="69.4787" y1="76.2377" x2="72.93" y2="24.8413" gradientUnits="userSpaceOnUse">
<stop stop-color="#3F3F3F"/>
<stop offset="1" stop-color="#5C5C5C"/>
</linearGradient>
<linearGradient id="paint1_linear_102_2" x1="65.0001" y1="66.8759" x2="45.5864" y2="-22.4171" gradientUnits="userSpaceOnUse">
<stop stop-color="#3F3F3F"/>
<stop offset="1" stop-color="#777676"/>
</linearGradient>
<linearGradient id="paint2_linear_102_2" x1="57.3684" y1="62.9669" x2="60.2197" y2="20.5172" gradientUnits="userSpaceOnUse">
<stop stop-color="#3F3F3F"/>
<stop offset="1" stop-color="#5C5C5C"/>
</linearGradient>
<linearGradient id="paint3_linear_102_2" x1="53.6929" y1="55.3343" x2="37.6054" y2="-18.5372" gradientUnits="userSpaceOnUse">
<stop stop-color="#3F3F3F"/>
<stop offset="1" stop-color="#777676"/>
</linearGradient>
<linearGradient id="paint4_linear_102_2" x1="1011.31" y1="596.901" x2="1031.45" y2="548.519" gradientUnits="userSpaceOnUse">
<stop stop-color="#3F3F3F"/>
<stop offset="1" stop-color="#777676"/>
</linearGradient>
<linearGradient id="paint5_linear_102_2" x1="1364.91" y1="796.14" x2="1577" y2="513.79" gradientUnits="userSpaceOnUse">
<stop stop-color="#2C2C2C"/>
<stop offset="0.628054" stop-color="#515151"/>
<stop offset="1" stop-color="#7D7D7D"/>
</linearGradient>
<linearGradient id="paint6_linear_102_2" x1="1385.9" y1="347.266" x2="1211.14" y2="498.777" gradientUnits="userSpaceOnUse">
<stop stop-color="#E8EAE9"/>
<stop offset="0.498386" stop-color="#707072"/>
<stop offset="1" stop-color="#2F3032"/>
</linearGradient>
<linearGradient id="paint7_linear_102_2" x1="1085.97" y1="865.878" x2="1258.98" y2="580.103" gradientUnits="userSpaceOnUse">
<stop stop-color="#E8EAE9"/>
<stop offset="0.498386" stop-color="#707072"/>
<stop offset="1" stop-color="#2F3032"/>
</linearGradient>
<linearGradient id="paint8_linear_102_2" x1="1031.11" y1="560.452" x2="1126.17" y2="433.58" gradientUnits="userSpaceOnUse">
<stop stop-color="#E8EAE9"/>
<stop offset="0.498386" stop-color="#707072"/>
<stop offset="1" stop-color="#2F3032"/>
</linearGradient>
<linearGradient id="paint9_linear_102_2" x1="1373.56" y1="701.371" x2="1397.04" y2="641.477" gradientUnits="userSpaceOnUse">
<stop stop-color="#ECEAEA"/>
<stop offset="1" stop-color="white" stop-opacity="0"/>
</linearGradient>
<linearGradient id="paint10_linear_102_2" x1="1523.82" y1="715.578" x2="1511.06" y2="687.646" gradientUnits="userSpaceOnUse">
<stop stop-color="#4B4B4B"/>
<stop offset="0.899322" stop-opacity="0"/>
</linearGradient>
<linearGradient id="paint11_linear_102_2" x1="1207.65" y1="606.619" x2="1150.99" y2="711.283" gradientUnits="userSpaceOnUse">
<stop stop-color="#343434" stop-opacity="0.66"/>
<stop offset="1" stop-color="#1A1A1A"/>
</linearGradient>
<clipPath id="clip0_102_2">
<rect width="1713" height="964" fill="white"/>
</clipPath>
</defs>
</svg>
